<svg width="32" height="32" viewBox="0 0 32 32" fill="none" xmlns="http://www.w3.org/2000/svg">
<g id="clarity:menu-line">
<g id="Vector">
<path d="M28.4445 25.7778H3.55558C3.31983 25.7778 3.09374 25.6841 2.92704 25.5174C2.76034 25.3507 2.66669 25.1246 2.66669 24.8889C2.66669 24.6531 2.76034 24.427 2.92704 24.2603C3.09374 24.0936 3.31983 24 3.55558 24H28.4445C28.6802 24 28.9063 24.0936 29.073 24.2603C29.2397 24.427 29.3334 24.6531 29.3334 24.8889C29.3334 25.1246 29.2397 25.3507 29.073 25.5174C28.9063 25.6841 28.6802 25.7778 28.4445 25.7778Z" fill="#29384B"/>
<path d="M28.4445 25.7778H3.55558C3.31983 25.7778 3.09374 25.6841 2.92704 25.5174C2.76034 25.3507 2.66669 25.1246 2.66669 24.8889C2.66669 24.6531 2.76034 24.427 2.92704 24.2603C3.09374 24.0936 3.31983 24 3.55558 24H28.4445C28.6802 24 28.9063 24.0936 29.073 24.2603C29.2397 24.427 29.3334 24.6531 29.3334 24.8889C29.3334 25.1246 29.2397 25.3507 29.073 25.5174C28.9063 25.6841 28.6802 25.7778 28.4445 25.7778Z" fill="#001B3D"/>
</g>
<g id="Vector_2">
<path d="M28.4445 16.8889H3.55558C3.31983 16.8889 3.09374 16.7952 2.92704 16.6285C2.76034 16.4618 2.66669 16.2357 2.66669 16C2.66669 15.7642 2.76034 15.5381 2.92704 15.3714C3.09374 15.2047 3.31983 15.1111 3.55558 15.1111H28.4445C28.6802 15.1111 28.9063 15.2047 29.073 15.3714C29.2397 15.5381 29.3334 15.7642 29.3334 16C29.3334 16.2357 29.2397 16.4618 29.073 16.6285C28.9063 16.7952 28.6802 16.8889 28.4445 16.8889Z" fill="#29384B"/>
<path d="M28.4445 16.8889H3.55558C3.31983 16.8889 3.09374 16.7952 2.92704 16.6285C2.76034 16.4618 2.66669 16.2357 2.66669 16C2.66669 15.7642 2.76034 15.5381 2.92704 15.3714C3.09374 15.2047 3.31983 15.1111 3.55558 15.1111H28.4445C28.6802 15.1111 28.9063 15.2047 29.073 15.3714C29.2397 15.5381 29.3334 15.7642 29.3334 16C29.3334 16.2357 29.2397 16.4618 29.073 16.6285C28.9063 16.7952 28.6802 16.8889 28.4445 16.8889Z" fill="#001B3D"/>
</g>
<g id="Vector_3">
<path d="M28.4445 7.99995H3.55558C3.31983 7.99995 3.09374 7.9063 2.92704 7.7396C2.76034 7.5729 2.66669 7.3468 2.66669 7.11106C2.66669 6.87531 2.76034 6.64922 2.92704 6.48252C3.09374 6.31582 3.31983 6.22217 3.55558 6.22217H28.4445C28.6802 6.22217 28.9063 6.31582 29.073 6.48252C29.2397 6.64922 29.3334 6.87531 29.3334 7.11106C29.3334 7.3468 29.2397 7.5729 29.073 7.7396C28.9063 7.9063 28.6802 7.99995 28.4445 7.99995Z" fill="#29384B"/>
<path d="M28.4445 7.99995H3.55558C3.31983 7.99995 3.09374 7.9063 2.92704 7.7396C2.76034 7.5729 2.66669 7.3468 2.66669 7.11106C2.66669 6.87531 2.76034 6.64922 2.92704 6.48252C3.09374 6.31582 3.31983 6.22217 3.55558 6.22217H28.4445C28.6802 6.22217 28.9063 6.31582 29.073 6.48252C29.2397 6.64922 29.3334 6.87531 29.3334 7.11106C29.3334 7.3468 29.2397 7.5729 29.073 7.7396C28.9063 7.9063 28.6802 7.99995 28.4445 7.99995Z" fill="#001B3D"/>
</g>
</g>
</svg>
