<svg width="24" height="24" viewBox="0 0 24 24" fill="none" xmlns="http://www.w3.org/2000/svg">
<g id="Frame" clip-path="url(#clip0_1_293)">
<g id="Group">
<path id="Vector" d="M24 12C24 5.37188 18.6281 0 12 0C5.37188 0 0 5.37188 0 12C0 18.6281 5.37188 24 12 24C12.0703 24 12.1406 24 12.2109 23.9953V14.6578H9.63281V11.6531H12.2109V9.44062C12.2109 6.87656 13.7766 5.47969 16.0641 5.47969C17.1609 5.47969 18.1031 5.55938 18.375 5.59688V8.27813H16.8C15.5578 8.27813 15.3141 8.86875 15.3141 9.73594V11.6484H18.2906L17.9016 14.6531H15.3141V23.5359C20.3297 22.0969 24 17.4797 24 12Z" fill="#C88C66"/>
<path id="Vector_2" d="M31.5 20.5C31.5 13.8719 27 -12.5 12.2109 -11C5.58281 -11 -6.5 5.02498 -6.5 11.6531C-6.5 31.5 5.37188 24 12 24C12.0703 24 12.1406 24 12.2109 23.9953V14.6578H9.63281V11.6531H12.2109V9.4406C12.2109 6.87654 13.7766 5.47966 16.0641 5.47966C17.1609 5.47966 18.1031 5.55935 18.375 5.59685V8.2781H16.8C15.5578 8.2781 15.3141 8.86872 15.3141 9.73591V11.6484H18.2906L17.9016 14.6531H15.3141V23.5359C20.3297 22.0968 31.5 25.9797 31.5 20.5Z" fill="#C88C66"/>
</g>
</g>
<defs>
<clipPath id="clip0_1_293">
<rect width="24" height="24" fill="white"/>
</clipPath>
</defs>
</svg>
