<svg width="44" height="45" viewBox="0 0 44 45" fill="none" xmlns="http://www.w3.org/2000/svg">
<g id="formkit:down">
<rect width="44" height="44" transform="matrix(0 -1 -1 0 44 44.5)" fill="black" fill-opacity="0.4"/>
<path id="Vector" d="M16.686 22.01C16.6845 22.142 16.7095 22.2728 16.7594 22.3941C16.8093 22.5155 16.8831 22.6246 16.9759 22.7144L25.6715 31.7721C26.058 32.1746 26.657 32.1746 27.0435 31.7721C27.43 31.3695 27.43 30.7455 27.0435 30.343L19.0242 21.9898L27.0242 13.6568C27.4107 13.2543 27.4107 12.6303 27.0242 12.2277C26.6377 11.8252 26.0387 11.8252 25.6522 12.2277L16.9566 21.2854C16.7633 21.4866 16.6667 21.7483 16.6667 21.9898L16.686 22.01Z" fill="white"/>
</g>
</svg>
