<svg width="62" height="60" viewBox="0 0 62 60" fill="none" xmlns="http://www.w3.org/2000/svg">
<g id="Logo" clip-path="url(#clip0_6_756)">
<g id="Group">
<g id="Group_2">
<g id="Vector">
<path d="M35.8826 2.27443C35.2892 2.66998 34.7206 3.09026 34.152 3.48581C33.1137 2.81832 32.5698 1.63167 31.4326 1.31028C30.0976 0.939454 29.4301 2.29916 28.4165 2.81832C26.1669 1.63167 26.7107 4.17802 25.8207 4.77134C25.2027 4.44996 24.7824 3.80719 24.0161 3.85664C23.5216 5.09273 23.7194 8.40546 24.3869 9.54267C25.8455 11.9654 29.0346 13.869 31.4821 12.9296C32.0259 12.9048 32.4462 12.8801 32.8418 12.8554C35.5117 12.6329 37.3411 11.199 37.8356 8.92462C38.2806 6.82326 37.9592 4.77134 37.2917 2.74415C37.0445 2.00249 36.5253 1.85416 35.8826 2.27443ZM33.4845 4.02969C32.9901 4.44996 32.5698 4.82079 32.0754 5.21634C31.0371 4.59829 30.1965 3.73303 29.0593 3.23859C31.309 1.63167 30.864 1.35973 33.4845 4.02969ZM24.5105 4.84551C25.4746 5.14217 25.8702 5.61189 25.6477 6.60076C25.3263 7.96047 25.5735 9.27073 26.1174 10.5563C24.3869 8.97406 24.5105 6.92215 24.5105 4.84551ZM32.372 11.6193C31.8776 12.3362 30.8887 12.6576 30.246 11.644C29.1088 9.81461 28.194 7.93575 27.7243 5.83439C27.6749 5.56245 27.6996 5.24106 27.2052 5.04329C27.2793 7.93575 28.7874 10.136 30.1471 12.4104C28.9357 12.534 27.6996 11.8912 27.0074 10.7293C25.796 8.72685 25.9691 5.56244 27.5018 3.1397C29.6526 4.42524 32.0754 5.38939 32.8912 8.13352C33.262 9.36961 33.1137 10.5563 32.372 11.6193ZM33.262 11.9407C35.0914 10.3338 35.7837 8.38074 35.4623 6.05688C34.7453 7.39186 34.9678 9.1224 33.8059 10.3585C33.7317 7.98519 33.5834 7.44131 32.5698 5.85911C33.6081 4.79607 35.6353 3.3622 36.4759 3.09026C38.33 7.86158 37.1681 11.5204 33.262 11.9407Z" fill="url(#paint0_linear_6_756)"/>
<path d="M35.8826 2.27443C35.2892 2.66998 34.7206 3.09026 34.152 3.48581C33.1137 2.81832 32.5698 1.63167 31.4326 1.31028C30.0976 0.939454 29.4301 2.29916 28.4165 2.81832C26.1669 1.63167 26.7107 4.17802 25.8207 4.77134C25.2027 4.44996 24.7824 3.80719 24.0161 3.85664C23.5216 5.09273 23.7194 8.40546 24.3869 9.54267C25.8455 11.9654 29.0346 13.869 31.4821 12.9296C32.0259 12.9048 32.4462 12.8801 32.8418 12.8554C35.5117 12.6329 37.3411 11.199 37.8356 8.92462C38.2806 6.82326 37.9592 4.77134 37.2917 2.74415C37.0445 2.00249 36.5253 1.85416 35.8826 2.27443ZM33.4845 4.02969C32.9901 4.44996 32.5698 4.82079 32.0754 5.21634C31.0371 4.59829 30.1965 3.73303 29.0593 3.23859C31.309 1.63167 30.864 1.35973 33.4845 4.02969ZM24.5105 4.84551C25.4746 5.14217 25.8702 5.61189 25.6477 6.60076C25.3263 7.96047 25.5735 9.27073 26.1174 10.5563C24.3869 8.97406 24.5105 6.92215 24.5105 4.84551ZM32.372 11.6193C31.8776 12.3362 30.8887 12.6576 30.246 11.644C29.1088 9.81461 28.194 7.93575 27.7243 5.83439C27.6749 5.56245 27.6996 5.24106 27.2052 5.04329C27.2793 7.93575 28.7874 10.136 30.1471 12.4104C28.9357 12.534 27.6996 11.8912 27.0074 10.7293C25.796 8.72685 25.9691 5.56244 27.5018 3.1397C29.6526 4.42524 32.0754 5.38939 32.8912 8.13352C33.262 9.36961 33.1137 10.5563 32.372 11.6193ZM33.262 11.9407C35.0914 10.3338 35.7837 8.38074 35.4623 6.05688C34.7453 7.39186 34.9678 9.1224 33.8059 10.3585C33.7317 7.98519 33.5834 7.44131 32.5698 5.85911C33.6081 4.79607 35.6353 3.3622 36.4759 3.09026C38.33 7.86158 37.1681 11.5204 33.262 11.9407Z" fill="#001B3D"/>
</g>
<g id="Vector_2">
<path d="M13.1879 8.43021C13.1137 9.14714 13.1137 9.83935 13.0643 10.5563C11.9023 10.9518 10.6168 10.6305 9.67736 11.3227C8.56488 12.1385 9.20765 13.4982 8.96043 14.6107C6.63657 15.6243 8.96043 16.7862 8.88626 17.874C8.26822 18.1706 7.50184 18.0965 7.03212 18.7145C7.69961 19.8517 10.3943 21.78 11.7046 21.9531C14.5229 22.3239 17.9839 21.0136 18.775 18.5167C19.0964 18.0717 19.3436 17.7504 19.5661 17.4042C21.0494 15.1793 21.0741 12.8554 19.5908 11.0507C18.2311 9.39436 16.4264 8.35604 14.424 7.63911C13.6823 7.34244 13.262 7.66383 13.1879 8.43021ZM13.0643 11.3721C13.089 12.0149 13.089 12.5835 13.1137 13.2015C12.0012 13.6218 10.7898 13.7454 9.67736 14.3387C9.82569 11.5946 9.33126 11.7677 13.0643 11.3721ZM8.09516 18.9123C8.93571 18.3437 9.55375 18.319 10.1718 19.1101C11.0371 20.1978 12.2237 20.8406 13.5587 21.2114C11.2596 21.5822 9.72681 20.2225 8.09516 18.9123ZM18.3053 16.984C18.5525 17.8245 18.1817 18.7887 17.0198 18.6651C14.8937 18.4178 12.8418 17.9729 10.9135 17.0087C10.6662 16.8851 10.4437 16.6379 9.9493 16.9345C12.2484 18.6898 14.9184 18.8876 17.5389 19.2089C16.8714 20.2473 15.5859 20.7911 14.2756 20.6181C11.9518 20.3214 9.6032 18.2201 8.63904 15.5007C10.9876 14.6107 13.262 13.3251 15.9073 14.4129C17.0939 14.8826 17.9097 15.7479 18.3053 16.984ZM19.0964 16.4895C18.9728 14.0668 17.885 12.2868 15.8578 11.0754C16.4512 12.4846 17.9592 13.3746 18.1817 15.0557C16.2781 13.6465 15.7589 13.3993 13.8801 13.2262C13.707 11.7677 13.8554 9.27075 14.152 8.45493C19.0717 9.98768 21.1978 13.2015 19.0964 16.4895Z" fill="url(#paint1_linear_6_756)"/>
<path d="M13.1879 8.43021C13.1137 9.14714 13.1137 9.83935 13.0643 10.5563C11.9023 10.9518 10.6168 10.6305 9.67736 11.3227C8.56488 12.1385 9.20765 13.4982 8.96043 14.6107C6.63657 15.6243 8.96043 16.7862 8.88626 17.874C8.26822 18.1706 7.50184 18.0965 7.03212 18.7145C7.69961 19.8517 10.3943 21.78 11.7046 21.9531C14.5229 22.3239 17.9839 21.0136 18.775 18.5167C19.0964 18.0717 19.3436 17.7504 19.5661 17.4042C21.0494 15.1793 21.0741 12.8554 19.5908 11.0507C18.2311 9.39436 16.4264 8.35604 14.424 7.63911C13.6823 7.34244 13.262 7.66383 13.1879 8.43021ZM13.0643 11.3721C13.089 12.0149 13.089 12.5835 13.1137 13.2015C12.0012 13.6218 10.7898 13.7454 9.67736 14.3387C9.82569 11.5946 9.33126 11.7677 13.0643 11.3721ZM8.09516 18.9123C8.93571 18.3437 9.55375 18.319 10.1718 19.1101C11.0371 20.1978 12.2237 20.8406 13.5587 21.2114C11.2596 21.5822 9.72681 20.2225 8.09516 18.9123ZM18.3053 16.984C18.5525 17.8245 18.1817 18.7887 17.0198 18.6651C14.8937 18.4178 12.8418 17.9729 10.9135 17.0087C10.6662 16.8851 10.4437 16.6379 9.9493 16.9345C12.2484 18.6898 14.9184 18.8876 17.5389 19.2089C16.8714 20.2473 15.5859 20.7911 14.2756 20.6181C11.9518 20.3214 9.6032 18.2201 8.63904 15.5007C10.9876 14.6107 13.262 13.3251 15.9073 14.4129C17.0939 14.8826 17.9097 15.7479 18.3053 16.984ZM19.0964 16.4895C18.9728 14.0668 17.885 12.2868 15.8578 11.0754C16.4512 12.4846 17.9592 13.3746 18.1817 15.0557C16.2781 13.6465 15.7589 13.3993 13.8801 13.2262C13.707 11.7677 13.8554 9.27075 14.152 8.45493C19.0717 9.98768 21.1978 13.2015 19.0964 16.4895Z" fill="#001B3D"/>
</g>
<g id="Vector_3">
<path d="M3.843 29.9878C4.36216 30.4822 4.90604 30.9519 5.4252 31.3969C5.00493 32.5588 3.96661 33.3499 3.91716 34.5119C3.86772 35.8963 5.32631 36.2424 6.04325 37.1077C5.37576 39.5799 7.74906 38.4674 8.54016 39.209C8.3671 39.8765 7.84794 40.4451 8.04572 41.1621C9.35598 41.3598 12.5451 40.4451 13.5093 39.5304C15.5612 37.5527 16.6984 34.0422 15.2398 31.8666C15.0915 31.3475 14.9926 30.9519 14.869 30.5564C14.0531 28.01 12.2484 26.5267 9.92458 26.5761C7.77378 26.6009 5.84547 27.3672 4.04077 28.4797C3.29912 28.9247 3.2744 29.4686 3.843 29.9878ZM6.06797 31.9408C6.58713 32.3363 7.03212 32.6825 7.52656 33.0533C7.15573 34.1905 6.51296 35.2288 6.26574 36.4402C4.21383 34.586 4.04077 35.0805 6.06797 31.9408ZM8.86154 40.5193C8.93571 39.5057 9.30653 39.0113 10.3201 39.0113C11.7046 39.0113 12.9406 38.4921 14.0779 37.6763C12.9159 39.7282 10.8887 40.0496 8.86154 40.5193ZM13.707 31.3475C14.5229 31.6689 15.042 32.5588 14.2015 33.3994C12.6934 34.9074 11.0371 36.2424 9.08404 37.1324C8.8121 37.256 8.51543 37.2807 8.41655 37.8246C11.2348 37.1077 13.0395 35.1546 14.9431 33.3252C15.3387 34.4872 14.9678 35.8469 14.0037 36.7616C12.3226 38.3932 9.20765 38.9124 6.48824 37.9729C7.25462 35.5749 7.67489 33.0286 10.1718 31.5947C11.3337 30.9766 12.5204 30.8778 13.707 31.3475ZM13.8306 30.408C11.8529 28.9989 9.77625 28.7517 7.60072 29.5675C9.08404 29.963 10.691 29.3697 12.1496 30.235C9.85042 30.8283 9.35598 31.1003 8.04572 32.46C6.7849 31.6936 4.93076 30.0372 4.46105 29.2708C8.73793 26.3784 12.5698 26.6998 13.8306 30.408Z" fill="url(#paint2_linear_6_756)"/>
<path d="M3.843 29.9878C4.36216 30.4822 4.90604 30.9519 5.4252 31.3969C5.00493 32.5588 3.96661 33.3499 3.91716 34.5119C3.86772 35.8963 5.32631 36.2424 6.04325 37.1077C5.37576 39.5799 7.74906 38.4674 8.54016 39.209C8.3671 39.8765 7.84794 40.4451 8.04572 41.1621C9.35598 41.3598 12.5451 40.4451 13.5093 39.5304C15.5612 37.5527 16.6984 34.0422 15.2398 31.8666C15.0915 31.3475 14.9926 30.9519 14.869 30.5564C14.0531 28.01 12.2484 26.5267 9.92458 26.5761C7.77378 26.6009 5.84547 27.3672 4.04077 28.4797C3.29912 28.9247 3.2744 29.4686 3.843 29.9878ZM6.06797 31.9408C6.58713 32.3363 7.03212 32.6825 7.52656 33.0533C7.15573 34.1905 6.51296 35.2288 6.26574 36.4402C4.21383 34.586 4.04077 35.0805 6.06797 31.9408ZM8.86154 40.5193C8.93571 39.5057 9.30653 39.0113 10.3201 39.0113C11.7046 39.0113 12.9406 38.4921 14.0779 37.6763C12.9159 39.7282 10.8887 40.0496 8.86154 40.5193ZM13.707 31.3475C14.5229 31.6689 15.042 32.5588 14.2015 33.3994C12.6934 34.9074 11.0371 36.2424 9.08404 37.1324C8.8121 37.256 8.51543 37.2807 8.41655 37.8246C11.2348 37.1077 13.0395 35.1546 14.9431 33.3252C15.3387 34.4872 14.9678 35.8469 14.0037 36.7616C12.3226 38.3932 9.20765 38.9124 6.48824 37.9729C7.25462 35.5749 7.67489 33.0286 10.1718 31.5947C11.3337 30.9766 12.5204 30.8778 13.707 31.3475ZM13.8306 30.408C11.8529 28.9989 9.77625 28.7517 7.60072 29.5675C9.08404 29.963 10.691 29.3697 12.1496 30.235C9.85042 30.8283 9.35598 31.1003 8.04572 32.46C6.7849 31.6936 4.93076 30.0372 4.46105 29.2708C8.73793 26.3784 12.5698 26.6998 13.8306 30.408Z" fill="#001B3D"/>
</g>
<g id="Vector_4">
<path d="M14.869 50.7541C15.5859 50.6552 16.2781 50.5316 16.9456 50.408C17.5884 51.4463 17.5636 52.7813 18.4536 53.523C19.4919 54.4377 20.6786 53.4982 21.8158 53.4735C23.3238 55.5254 23.9419 53.0038 25.0049 52.8307C25.4252 53.3746 25.5241 54.141 26.241 54.4377C27.2052 53.523 28.4907 50.4822 28.3671 49.1472C28.0952 46.3289 26.068 43.2387 23.4474 43.0162C22.9283 42.7937 22.5575 42.6453 22.1866 42.497C19.6897 41.5576 17.4153 42.0273 15.9814 43.8814C14.6712 45.5872 14.0531 47.565 13.8059 49.6663C13.707 50.5069 14.1026 50.853 14.869 50.7541ZM17.7861 50.2349C18.4042 50.0866 18.9481 49.9383 19.5661 49.79C20.2336 50.7788 20.6292 51.9408 21.4203 52.8802C18.7008 53.3252 18.9728 53.7702 17.7861 50.2349ZM26.2163 53.3994C25.4746 52.7071 25.3263 52.1138 25.9444 51.3227C26.8096 50.235 27.1805 48.9494 27.2546 47.565C28.1446 49.7158 27.131 51.5205 26.2163 53.3994ZM22.0877 43.8814C22.8541 43.4364 23.8924 43.5848 24.0161 44.7714C24.2633 46.8975 24.2633 48.9989 23.7688 51.1002C23.6947 51.3722 23.5216 51.6441 23.8924 52.0396C25.0791 49.3944 24.6835 46.7492 24.4363 44.1286C25.5983 44.5489 26.4141 45.6614 26.5377 46.9964C26.7602 49.3202 25.2274 52.0891 22.78 53.6218C21.3955 51.5205 19.6403 49.6169 20.0853 46.7739C20.3078 45.5131 20.9753 44.5242 22.0877 43.8814ZM21.4203 43.1892C19.0717 43.8567 17.6131 45.3153 16.8714 47.5403C18.1075 46.6503 18.6514 44.9939 20.2336 44.4006C19.2695 46.5761 19.1706 47.1447 19.4178 48.9989C18.0334 49.4933 15.5859 49.9136 14.6959 49.8147C15.0915 44.6725 17.7367 41.879 21.4203 43.1892Z" fill="url(#paint3_linear_6_756)"/>
<path d="M14.869 50.7541C15.5859 50.6552 16.2781 50.5316 16.9456 50.408C17.5884 51.4463 17.5636 52.7813 18.4536 53.523C19.4919 54.4377 20.6786 53.4982 21.8158 53.4735C23.3238 55.5254 23.9419 53.0038 25.0049 52.8307C25.4252 53.3746 25.5241 54.141 26.241 54.4377C27.2052 53.523 28.4907 50.4822 28.3671 49.1472C28.0952 46.3289 26.068 43.2387 23.4474 43.0162C22.9283 42.7937 22.5575 42.6453 22.1866 42.497C19.6897 41.5576 17.4153 42.0273 15.9814 43.8814C14.6712 45.5872 14.0531 47.565 13.8059 49.6663C13.707 50.5069 14.1026 50.853 14.869 50.7541ZM17.7861 50.2349C18.4042 50.0866 18.9481 49.9383 19.5661 49.79C20.2336 50.7788 20.6292 51.9408 21.4203 52.8802C18.7008 53.3252 18.9728 53.7702 17.7861 50.2349ZM26.2163 53.3994C25.4746 52.7071 25.3263 52.1138 25.9444 51.3227C26.8096 50.235 27.1805 48.9494 27.2546 47.565C28.1446 49.7158 27.131 51.5205 26.2163 53.3994ZM22.0877 43.8814C22.8541 43.4364 23.8924 43.5848 24.0161 44.7714C24.2633 46.8975 24.2633 48.9989 23.7688 51.1002C23.6947 51.3722 23.5216 51.6441 23.8924 52.0396C25.0791 49.3944 24.6835 46.7492 24.4363 44.1286C25.5983 44.5489 26.4141 45.6614 26.5377 46.9964C26.7602 49.3202 25.2274 52.0891 22.78 53.6218C21.3955 51.5205 19.6403 49.6169 20.0853 46.7739C20.3078 45.5131 20.9753 44.5242 22.0877 43.8814ZM21.4203 43.1892C19.0717 43.8567 17.6131 45.3153 16.8714 47.5403C18.1075 46.6503 18.6514 44.9939 20.2336 44.4006C19.2695 46.5761 19.1706 47.1447 19.4178 48.9989C18.0334 49.4933 15.5859 49.9136 14.6959 49.8147C15.0915 44.6725 17.7367 41.879 21.4203 43.1892Z" fill="#001B3D"/>
</g>
<g id="Vector_5">
<path d="M37.9839 55.0803C38.3547 54.487 38.6761 53.8442 39.0222 53.2262C40.2336 53.3745 41.2719 54.2151 42.4091 53.9926C43.7688 53.7454 43.7936 52.2373 44.4858 51.3226C47.0321 51.4215 45.4499 49.3696 45.9691 48.4302C46.6613 48.4549 47.3288 48.8257 47.9963 48.4796C47.8974 47.1446 46.2905 44.2522 45.178 43.5352C42.8047 41.9777 39.1211 41.6564 37.3164 43.5599C36.8467 43.8319 36.4759 44.0049 36.1298 44.2274C33.8306 45.5871 32.7923 47.6638 33.3362 49.9382C33.8554 52.0148 35.0173 53.7454 36.5006 55.2534C37.0692 55.8467 37.5884 55.7478 37.9839 55.0803ZM39.3931 52.4598C39.665 51.8665 39.8875 51.3473 40.1594 50.7787C41.3708 50.8776 42.508 51.2979 43.7441 51.2485C42.3844 53.6712 42.9036 53.7454 39.3931 52.4598ZM47.1063 47.8368C46.0927 47.9852 45.5241 47.7379 45.3263 46.7491C45.0296 45.3894 44.2385 44.3016 43.2002 43.3869C45.4499 44.0544 46.2163 45.958 47.1063 47.8368ZM37.0939 45.1421C37.2175 44.2769 37.9839 43.5599 38.9975 44.2027C40.8269 45.3399 42.4586 46.6502 43.7936 48.356C43.9666 48.5785 44.0655 48.8999 44.6094 48.8504C43.2991 46.2546 40.9753 44.9444 38.7503 43.4858C39.7886 42.843 41.1978 42.8925 42.3102 43.6341C44.2633 44.9197 45.4746 47.8368 45.1533 50.7046C42.6564 50.4821 40.0606 50.6551 38.1322 48.529C37.267 47.5402 36.8962 46.4277 37.0939 45.1421ZM36.1545 45.241C35.2151 47.4907 35.4376 49.5426 36.7231 51.5204C36.7973 49.9876 35.8331 48.5538 36.3523 46.9221C37.44 49.0235 37.8356 49.4685 39.4178 50.4326C38.9481 51.8418 37.7367 53.9926 37.0939 54.6353C33.3609 51.1248 32.8418 47.293 36.1545 45.241Z" fill="url(#paint4_linear_6_756)"/>
<path d="M37.9839 55.0803C38.3547 54.487 38.6761 53.8442 39.0222 53.2262C40.2336 53.3745 41.2719 54.2151 42.4091 53.9926C43.7688 53.7454 43.7936 52.2373 44.4858 51.3226C47.0321 51.4215 45.4499 49.3696 45.9691 48.4302C46.6613 48.4549 47.3288 48.8257 47.9963 48.4796C47.8974 47.1446 46.2905 44.2522 45.178 43.5352C42.8047 41.9777 39.1211 41.6564 37.3164 43.5599C36.8467 43.8319 36.4759 44.0049 36.1298 44.2274C33.8306 45.5871 32.7923 47.6638 33.3362 49.9382C33.8554 52.0148 35.0173 53.7454 36.5006 55.2534C37.0692 55.8467 37.5884 55.7478 37.9839 55.0803ZM39.3931 52.4598C39.665 51.8665 39.8875 51.3473 40.1594 50.7787C41.3708 50.8776 42.508 51.2979 43.7441 51.2485C42.3844 53.6712 42.9036 53.7454 39.3931 52.4598ZM47.1063 47.8368C46.0927 47.9852 45.5241 47.7379 45.3263 46.7491C45.0296 45.3894 44.2385 44.3016 43.2002 43.3869C45.4499 44.0544 46.2163 45.958 47.1063 47.8368ZM37.0939 45.1421C37.2175 44.2769 37.9839 43.5599 38.9975 44.2027C40.8269 45.3399 42.4586 46.6502 43.7936 48.356C43.9666 48.5785 44.0655 48.8999 44.6094 48.8504C43.2991 46.2546 40.9753 44.9444 38.7503 43.4858C39.7886 42.843 41.1978 42.8925 42.3102 43.6341C44.2633 44.9197 45.4746 47.8368 45.1533 50.7046C42.6564 50.4821 40.0606 50.6551 38.1322 48.529C37.267 47.5402 36.8962 46.4277 37.0939 45.1421ZM36.1545 45.241C35.2151 47.4907 35.4376 49.5426 36.7231 51.5204C36.7973 49.9876 35.8331 48.5538 36.3523 46.9221C37.44 49.0235 37.8356 49.4685 39.4178 50.4326C38.9481 51.8418 37.7367 53.9926 37.0939 54.6353C33.3609 51.1248 32.8418 47.293 36.1545 45.241Z" fill="#001B3D"/>
</g>
<g id="Vector_6">
<path d="M55.7837 39.7033C55.5365 39.0358 55.2398 38.393 54.9678 37.7503C55.8331 36.885 57.1434 36.6131 57.6873 35.5995C58.3547 34.3634 57.1681 33.424 56.8962 32.3362C58.5525 30.4079 55.9567 30.3584 55.5612 29.3696C56.0062 28.8257 56.7231 28.5537 56.8467 27.8121C55.759 27.0704 52.4709 26.5018 51.2348 26.9221C48.5402 27.8121 45.9938 30.4821 46.3646 33.0778C46.2657 33.6217 46.1916 34.0173 46.1421 34.4376C45.7713 37.0828 46.7602 39.2089 48.8615 40.173C50.8146 41.0877 52.8912 41.2361 54.9926 41.0136C55.7837 40.89 56.0309 40.4202 55.7837 39.7033ZM54.597 36.9839C54.3004 36.4153 54.0531 35.8961 53.7565 35.3523C54.5723 34.487 55.6106 33.8442 56.377 32.8306C57.4153 35.377 57.8109 35.0309 54.597 36.9839ZM55.8084 28.0593C55.314 28.9493 54.7453 29.2212 53.8306 28.7762C52.5945 28.1582 51.2348 28.1087 49.8751 28.356C51.8034 26.9963 53.7812 27.5649 55.8084 28.0593ZM47.4524 34.1903C46.8591 33.5476 46.7849 32.5092 47.8974 32.1137C49.9246 31.3968 51.9765 30.927 54.1273 30.9518C54.424 30.9518 54.7206 31.0754 55.0173 30.6057C52.1743 30.0371 49.7021 31.0259 47.1805 31.8418C47.3288 30.6304 48.2435 29.5673 49.5043 29.1471C51.7293 28.4054 54.7701 29.2954 56.7973 31.3226C55.0667 33.152 53.5834 35.2781 50.7157 35.4759C49.4301 35.5748 48.3424 35.1545 47.4524 34.1903ZM46.9332 35.0062C48.0952 37.1322 49.8504 38.2447 52.199 38.4672C51.0371 37.4536 49.3065 37.3053 48.3918 35.8961C50.7157 36.3659 51.2843 36.3164 53.0395 35.6736C53.8306 36.9097 54.7701 39.2089 54.869 40.0989C49.801 40.8405 46.4882 38.8875 46.9332 35.0062Z" fill="url(#paint5_linear_6_756)"/>
<path d="M55.7837 39.7033C55.5365 39.0358 55.2398 38.393 54.9678 37.7503C55.8331 36.885 57.1434 36.6131 57.6873 35.5995C58.3547 34.3634 57.1681 33.424 56.8962 32.3362C58.5525 30.4079 55.9567 30.3584 55.5612 29.3696C56.0062 28.8257 56.7231 28.5537 56.8467 27.8121C55.759 27.0704 52.4709 26.5018 51.2348 26.9221C48.5402 27.8121 45.9938 30.4821 46.3646 33.0778C46.2657 33.6217 46.1916 34.0173 46.1421 34.4376C45.7713 37.0828 46.7602 39.2089 48.8615 40.173C50.8146 41.0877 52.8912 41.2361 54.9926 41.0136C55.7837 40.89 56.0309 40.4202 55.7837 39.7033ZM54.597 36.9839C54.3004 36.4153 54.0531 35.8961 53.7565 35.3523C54.5723 34.487 55.6106 33.8442 56.377 32.8306C57.4153 35.377 57.8109 35.0309 54.597 36.9839ZM55.8084 28.0593C55.314 28.9493 54.7453 29.2212 53.8306 28.7762C52.5945 28.1582 51.2348 28.1087 49.8751 28.356C51.8034 26.9963 53.7812 27.5649 55.8084 28.0593ZM47.4524 34.1903C46.8591 33.5476 46.7849 32.5092 47.8974 32.1137C49.9246 31.3968 51.9765 30.927 54.1273 30.9518C54.424 30.9518 54.7206 31.0754 55.0173 30.6057C52.1743 30.0371 49.7021 31.0259 47.1805 31.8418C47.3288 30.6304 48.2435 29.5673 49.5043 29.1471C51.7293 28.4054 54.7701 29.2954 56.7973 31.3226C55.0667 33.152 53.5834 35.2781 50.7157 35.4759C49.4301 35.5748 48.3424 35.1545 47.4524 34.1903ZM46.9332 35.0062C48.0952 37.1322 49.8504 38.2447 52.199 38.4672C51.0371 37.4536 49.3065 37.3053 48.3918 35.8961C50.7157 36.3659 51.2843 36.3164 53.0395 35.6736C53.8306 36.9097 54.7701 39.2089 54.869 40.0989C49.801 40.8405 46.4882 38.8875 46.9332 35.0062Z" fill="#001B3D"/>
</g>
<g id="Vector_7">
<path d="M54.8442 16.193C54.1767 15.9705 53.4845 15.7974 52.817 15.5996C52.6934 14.3883 53.2868 13.2016 52.817 12.1386C52.2732 10.853 50.7898 11.1744 49.7763 10.7047C49.3065 8.2078 47.6502 10.2103 46.6119 9.88888C46.4635 9.22139 46.7107 8.47974 46.2163 7.91113C44.9555 8.30668 42.4586 10.5069 42.0136 11.743C41.0247 14.413 41.5191 18.0718 43.7936 19.4068C44.1644 19.8271 44.4116 20.1237 44.7083 20.4204C46.5624 22.3487 48.8121 22.9173 50.8887 21.879C52.817 20.9148 54.2262 19.3821 55.3634 17.6021C55.7837 16.9346 55.5612 16.4402 54.8442 16.193ZM51.9765 15.4266C51.3337 15.303 50.7899 15.1794 50.1718 15.0558C49.9988 13.8691 50.1471 12.6577 49.8257 11.4464C52.4957 12.2375 52.4462 11.6936 51.9765 15.4266ZM45.7466 8.90001C46.1174 9.83944 45.9938 10.4575 45.0791 10.8778C43.8183 11.4711 42.9283 12.4847 42.2855 13.6961C42.4339 11.3969 44.1149 10.2103 45.7466 8.90001ZM45.351 19.2832C44.461 19.3574 43.6205 18.764 43.9913 17.6516C44.7083 15.6244 45.5983 13.7208 46.958 12.0644C47.131 11.8419 47.4277 11.6689 47.2546 11.1497C45.0297 13.0038 44.2633 15.5749 43.3486 18.0471C42.4833 17.1818 42.2361 15.7974 42.6811 14.5366C43.4969 12.3363 46.068 10.5069 48.9357 10.1855C49.2818 12.6825 50.0235 15.1546 48.3918 17.5279C47.6502 18.591 46.6366 19.1843 45.351 19.2832ZM45.6724 20.1732C48.0704 20.5935 50.0235 19.926 51.6551 18.2202C50.1471 18.4921 48.9604 19.7529 47.2546 19.6046C49.0593 18.0718 49.4054 17.6021 49.9987 15.8221C51.4821 15.9705 53.8554 16.6627 54.597 17.1324C52.0012 21.6071 48.4165 22.9668 45.6724 20.1732Z" fill="url(#paint6_linear_6_756)"/>
<path d="M54.8442 16.193C54.1767 15.9705 53.4845 15.7974 52.817 15.5996C52.6934 14.3883 53.2868 13.2016 52.817 12.1386C52.2732 10.853 50.7898 11.1744 49.7763 10.7047C49.3065 8.2078 47.6502 10.2103 46.6119 9.88888C46.4635 9.22139 46.7107 8.47974 46.2163 7.91113C44.9555 8.30668 42.4586 10.5069 42.0136 11.743C41.0247 14.413 41.5191 18.0718 43.7936 19.4068C44.1644 19.8271 44.4116 20.1237 44.7083 20.4204C46.5624 22.3487 48.8121 22.9173 50.8887 21.879C52.817 20.9148 54.2262 19.3821 55.3634 17.6021C55.7837 16.9346 55.5612 16.4402 54.8442 16.193ZM51.9765 15.4266C51.3337 15.303 50.7899 15.1794 50.1718 15.0558C49.9988 13.8691 50.1471 12.6577 49.8257 11.4464C52.4957 12.2375 52.4462 11.6936 51.9765 15.4266ZM45.7466 8.90001C46.1174 9.83944 45.9938 10.4575 45.0791 10.8778C43.8183 11.4711 42.9283 12.4847 42.2855 13.6961C42.4339 11.3969 44.1149 10.2103 45.7466 8.90001ZM45.351 19.2832C44.461 19.3574 43.6205 18.764 43.9913 17.6516C44.7083 15.6244 45.5983 13.7208 46.958 12.0644C47.131 11.8419 47.4277 11.6689 47.2546 11.1497C45.0297 13.0038 44.2633 15.5749 43.3486 18.0471C42.4833 17.1818 42.2361 15.7974 42.6811 14.5366C43.4969 12.3363 46.068 10.5069 48.9357 10.1855C49.2818 12.6825 50.0235 15.1546 48.3918 17.5279C47.6502 18.591 46.6366 19.1843 45.351 19.2832ZM45.6724 20.1732C48.0704 20.5935 50.0235 19.926 51.6551 18.2202C50.1471 18.4921 48.9604 19.7529 47.2546 19.6046C49.0593 18.0718 49.4054 17.6021 49.9987 15.8221C51.4821 15.9705 53.8554 16.6627 54.597 17.1324C52.0012 21.6071 48.4165 22.9668 45.6724 20.1732Z" fill="#001B3D"/>
</g>
</g>
<g id="Group_3">
<g id="Group_4">
<g id="Group_5">
<g id="Vector_8">
<path d="M28.3671 16.6379C27.3535 15.8468 26.8096 15.3277 25.2769 14.9074C23.9913 14.2893 23.5711 16.2176 23.398 17.8987C23.225 19.9012 24.7083 21.7553 26.7107 21.879C27.2299 21.9037 27.7491 21.8295 28.194 21.5823C29.3313 21.6317 30.5426 18.6157 28.3671 16.6379ZM28.6885 20.6181C28.4165 21.162 27.7491 21.4587 27.2299 20.8159C26.2905 19.654 25.4994 18.4426 25.0296 17.0335C24.9555 16.8357 24.9802 16.6132 24.6094 16.539C24.906 18.5168 26.1174 19.9012 27.2299 21.3351C26.4141 21.5328 25.4994 21.1867 24.9308 20.4451C23.9419 19.1595 23.7936 16.984 24.6588 15.204C26.241 15.8963 27.9716 16.366 28.7627 18.1954C29.1335 19.0112 29.1088 19.827 28.6885 20.6181Z" fill="url(#paint7_linear_6_756)"/>
<path d="M28.3671 16.6379C27.3535 15.8468 26.8096 15.3277 25.2769 14.9074C23.9913 14.2893 23.5711 16.2176 23.398 17.8987C23.225 19.9012 24.7083 21.7553 26.7107 21.879C27.2299 21.9037 27.7491 21.8295 28.194 21.5823C29.3313 21.6317 30.5426 18.6157 28.3671 16.6379ZM28.6885 20.6181C28.4165 21.162 27.7491 21.4587 27.2299 20.8159C26.2905 19.654 25.4994 18.4426 25.0296 17.0335C24.9555 16.8357 24.9802 16.6132 24.6094 16.539C24.906 18.5168 26.1174 19.9012 27.2299 21.3351C26.4141 21.5328 25.4994 21.1867 24.9308 20.4451C23.9419 19.1595 23.7936 16.984 24.6588 15.204C26.241 15.8963 27.9716 16.366 28.7627 18.1954C29.1335 19.0112 29.1088 19.827 28.6885 20.6181Z" fill="#001B3D"/>
</g>
</g>
<g id="Group_6">
<g id="Vector_9">
<path d="M19.9369 23.4611C18.7008 23.7578 17.9345 23.8567 16.6737 24.7961C15.3881 25.4142 16.6242 26.9469 17.8603 28.1336C19.3189 29.518 21.6922 29.518 23.0519 28.0347C23.398 27.6391 23.6452 27.1941 23.7441 26.675C24.4363 25.8344 22.8541 23.0162 19.9369 23.4611ZM23.2497 25.6861C23.4969 26.2547 23.3238 26.9469 22.508 26.9469C21.0247 26.9469 19.5908 26.7986 18.1817 26.3042C17.9839 26.23 17.8356 26.1064 17.5142 26.3289C19.2447 27.3425 21.0989 27.2436 22.9036 27.2683C22.5327 28.0347 21.6922 28.5291 20.7775 28.5044C19.1706 28.4797 17.3659 27.2436 16.5006 25.4636C18.0334 24.6478 19.4919 23.6095 21.3955 24.1039C22.2608 24.3511 22.9036 24.8703 23.2497 25.6861Z" fill="url(#paint8_linear_6_756)"/>
<path d="M19.9369 23.4611C18.7008 23.7578 17.9345 23.8567 16.6737 24.7961C15.3881 25.4142 16.6242 26.9469 17.8603 28.1336C19.3189 29.518 21.6922 29.518 23.0519 28.0347C23.398 27.6391 23.6452 27.1941 23.7441 26.675C24.4363 25.8344 22.8541 23.0162 19.9369 23.4611ZM23.2497 25.6861C23.4969 26.2547 23.3238 26.9469 22.508 26.9469C21.0247 26.9469 19.5908 26.7986 18.1817 26.3042C17.9839 26.23 17.8356 26.1064 17.5142 26.3289C19.2447 27.3425 21.0989 27.2436 22.9036 27.2683C22.5327 28.0347 21.6922 28.5291 20.7775 28.5044C19.1706 28.4797 17.3659 27.2436 16.5006 25.4636C18.0334 24.6478 19.4919 23.6095 21.3955 24.1039C22.2608 24.3511 22.9036 24.8703 23.2497 25.6861Z" fill="#001B3D"/>
</g>
</g>
<g id="Group_7">
<g id="Vector_10">
<path d="M20.0111 34.3141C19.4672 35.4761 19.0717 36.1435 19.0222 37.701C18.7008 39.1102 20.6786 39.0854 22.3597 38.8629C24.3622 38.591 25.8455 36.7369 25.4994 34.7344C25.4005 34.2152 25.2027 33.7455 24.8813 33.35C24.6835 32.2622 21.4697 31.743 20.0111 34.3141ZM23.8183 33.1027C24.4116 33.2511 24.8319 33.8197 24.3374 34.4625C23.4227 35.6244 22.4091 36.6627 21.1483 37.4538C20.9753 37.5527 20.7528 37.6021 20.7528 37.973C22.6316 37.256 23.6947 35.748 24.8566 34.3388C25.2274 35.1052 25.0791 36.0694 24.5105 36.7863C23.4969 38.0471 21.3955 38.6652 19.4672 38.2202C19.7886 36.5144 19.8628 34.7344 21.4697 33.5477C22.1619 33.0533 22.953 32.8803 23.8183 33.1027Z" fill="url(#paint9_linear_6_756)"/>
<path d="M20.0111 34.3141C19.4672 35.4761 19.0717 36.1435 19.0222 37.701C18.7008 39.1102 20.6786 39.0854 22.3597 38.8629C24.3622 38.591 25.8455 36.7369 25.4994 34.7344C25.4005 34.2152 25.2027 33.7455 24.8813 33.35C24.6835 32.2622 21.4697 31.743 20.0111 34.3141ZM23.8183 33.1027C24.4116 33.2511 24.8319 33.8197 24.3374 34.4625C23.4227 35.6244 22.4091 36.6627 21.1483 37.4538C20.9753 37.5527 20.7528 37.6021 20.7528 37.973C22.6316 37.256 23.6947 35.748 24.8566 34.3388C25.2274 35.1052 25.0791 36.0694 24.5105 36.7863C23.4969 38.0471 21.3955 38.6652 19.4672 38.2202C19.7886 36.5144 19.8628 34.7344 21.4697 33.5477C22.1619 33.0533 22.953 32.8803 23.8183 33.1027Z" fill="#001B3D"/>
</g>
</g>
<g id="Group_8">
<g id="Vector_11">
<path d="M28.5402 41.0136C29.1088 42.1755 29.3807 42.8925 30.5674 43.9061C31.4573 45.0186 32.6934 43.4611 33.5587 42.0272C34.597 40.2967 34.0531 37.9728 32.2979 37.0087C31.8282 36.7615 31.3337 36.6131 30.8146 36.6378C29.8504 36.094 27.4524 38.2942 28.5402 41.0136ZM29.974 37.2806C30.4685 36.9098 31.1854 36.9345 31.3584 37.7256C31.7046 39.1595 31.8776 40.6181 31.7046 42.0767C31.6798 42.2744 31.5809 42.4722 31.8776 42.7194C32.4709 40.8158 31.9765 39.0359 31.5809 37.2559C32.3968 37.4537 33.0643 38.1459 33.262 39.0606C33.6081 40.6428 32.7923 42.67 31.2348 43.9061C30.0976 42.5958 28.7627 41.4092 28.8368 39.4314C28.8863 38.5414 29.2571 37.8245 29.974 37.2806Z" fill="url(#paint10_linear_6_756)"/>
<path d="M28.5402 41.0136C29.1088 42.1755 29.3807 42.8925 30.5674 43.9061C31.4573 45.0186 32.6934 43.4611 33.5587 42.0272C34.597 40.2967 34.0531 37.9728 32.2979 37.0087C31.8282 36.7615 31.3337 36.6131 30.8146 36.6378C29.8504 36.094 27.4524 38.2942 28.5402 41.0136ZM29.974 37.2806C30.4685 36.9098 31.1854 36.9345 31.3584 37.7256C31.7046 39.1595 31.8776 40.6181 31.7046 42.0767C31.6798 42.2744 31.5809 42.4722 31.8776 42.7194C32.4709 40.8158 31.9765 39.0359 31.5809 37.2559C32.3968 37.4537 33.0643 38.1459 33.262 39.0606C33.6081 40.6428 32.7923 42.67 31.2348 43.9061C30.0976 42.5958 28.7627 41.4092 28.8368 39.4314C28.8863 38.5414 29.2571 37.8245 29.974 37.2806Z" fill="#001B3D"/>
</g>
</g>
<g id="Group_9">
<g id="Vector_12">
<path d="M39.0964 38.5168C40.3572 38.7888 41.0741 39.036 42.6316 38.7146C44.0655 38.7146 43.6205 36.7863 43.0025 35.2041C42.2855 33.3005 40.1594 32.2869 38.2806 33.0533C37.7861 33.2511 37.3659 33.5477 37.0692 33.968C36.0803 34.4377 36.2781 37.6763 39.0964 38.5168ZM37.0692 35.0805C37.0939 34.4624 37.5389 33.9186 38.2806 34.2647C39.6156 34.9074 40.8517 35.6491 41.9147 36.7121C42.063 36.8605 42.1372 37.0582 42.508 36.9841C41.3955 35.3277 39.6897 34.6108 38.0581 33.795C38.7256 33.2758 39.6897 33.1769 40.5055 33.5972C41.9641 34.3141 43.0272 36.2177 43.0519 38.1955C41.3214 38.2449 39.5661 38.591 38.0581 37.2807C37.3906 36.7121 37.0445 35.9705 37.0692 35.0805Z" fill="url(#paint11_linear_6_756)"/>
<path d="M39.0964 38.5168C40.3572 38.7888 41.0741 39.036 42.6316 38.7146C44.0655 38.7146 43.6205 36.7863 43.0025 35.2041C42.2855 33.3005 40.1594 32.2869 38.2806 33.0533C37.7861 33.2511 37.3659 33.5477 37.0692 33.968C36.0803 34.4377 36.2781 37.6763 39.0964 38.5168ZM37.0692 35.0805C37.0939 34.4624 37.5389 33.9186 38.2806 34.2647C39.6156 34.9074 40.8517 35.6491 41.9147 36.7121C42.063 36.8605 42.1372 37.0582 42.508 36.9841C41.3955 35.3277 39.6897 34.6108 38.0581 33.795C38.7256 33.2758 39.6897 33.1769 40.5055 33.5972C41.9641 34.3141 43.0272 36.2177 43.0519 38.1955C41.3214 38.2449 39.5661 38.591 38.0581 37.2807C37.3906 36.7121 37.0445 35.9705 37.0692 35.0805Z" fill="#001B3D"/>
</g>
</g>
<g id="Group_10">
<g id="Vector_13">
<path d="M43.7441 28.7023C44.733 27.8865 45.3758 27.4662 46.1174 26.0818C47.0074 24.9693 45.2274 24.1288 43.6205 23.5849C41.6922 22.9668 39.5661 23.9804 38.9975 25.9335C38.8492 26.4526 38.8245 26.9718 38.9481 27.4662C38.6514 28.5293 41.3214 30.3834 43.7441 28.7023ZM39.7886 28.1584C39.3189 27.7629 39.1953 27.0707 39.9122 26.6998C41.2472 26.0571 42.6069 25.5626 44.0902 25.3896C44.288 25.3649 44.5105 25.4143 44.6835 25.0929C42.6811 24.9199 41.0741 25.8099 39.4178 26.5762C39.4178 25.7357 39.9617 24.9199 40.8022 24.5243C42.2608 23.8321 44.4116 24.1782 45.9938 25.4143C44.9555 26.7987 44.1149 28.3809 42.1619 28.7518C41.2472 28.9248 40.4561 28.727 39.7886 28.1584Z" fill="url(#paint12_linear_6_756)"/>
<path d="M43.7441 28.7023C44.733 27.8865 45.3758 27.4662 46.1174 26.0818C47.0074 24.9693 45.2274 24.1288 43.6205 23.5849C41.6922 22.9668 39.5661 23.9804 38.9975 25.9335C38.8492 26.4526 38.8245 26.9718 38.9481 27.4662C38.6514 28.5293 41.3214 30.3834 43.7441 28.7023ZM39.7886 28.1584C39.3189 27.7629 39.1953 27.0707 39.9122 26.6998C41.2472 26.0571 42.6069 25.5626 44.0902 25.3896C44.288 25.3649 44.5105 25.4143 44.6835 25.0929C42.6811 24.9199 41.0741 25.8099 39.4178 26.5762C39.4178 25.7357 39.9617 24.9199 40.8022 24.5243C42.2608 23.8321 44.4116 24.1782 45.9938 25.4143C44.9555 26.7987 44.1149 28.3809 42.1619 28.7518C41.2472 28.9248 40.4561 28.727 39.7886 28.1584Z" fill="#001B3D"/>
</g>
</g>
<g id="Group_11">
<g id="Vector_14">
<path d="M38.9481 18.9618C38.9481 17.6763 38.9975 16.9099 38.3547 15.476C38.0334 14.0669 36.2534 14.9569 34.8442 15.8716C33.1631 16.9841 32.644 19.3079 33.8059 20.9396C34.1026 21.3598 34.4981 21.7059 34.9678 21.9284C35.6353 22.8431 38.7503 21.9284 38.9481 18.9618ZM36.0556 21.7307C35.4623 21.8543 34.8195 21.5082 34.9926 20.7171C35.314 19.2585 35.7837 17.8988 36.5748 16.6379C36.6737 16.4649 36.8467 16.3413 36.6984 15.9952C35.314 17.4538 35.0173 19.2832 34.5723 21.0384C33.9048 20.5193 33.6081 19.5798 33.8306 18.6899C34.2015 17.1077 35.8331 15.6491 37.7614 15.2041C38.2064 16.8852 38.9233 18.5168 37.9839 20.2721C37.5884 21.0632 36.9209 21.5576 36.0556 21.7307Z" fill="url(#paint13_linear_6_756)"/>
<path d="M38.9481 18.9618C38.9481 17.6763 38.9975 16.9099 38.3547 15.476C38.0334 14.0669 36.2534 14.9569 34.8442 15.8716C33.1631 16.9841 32.644 19.3079 33.8059 20.9396C34.1026 21.3598 34.4981 21.7059 34.9678 21.9284C35.6353 22.8431 38.7503 21.9284 38.9481 18.9618ZM36.0556 21.7307C35.4623 21.8543 34.8195 21.5082 34.9926 20.7171C35.314 19.2585 35.7837 17.8988 36.5748 16.6379C36.6737 16.4649 36.8467 16.3413 36.6984 15.9952C35.314 17.4538 35.0173 19.2832 34.5723 21.0384C33.9048 20.5193 33.6081 19.5798 33.8306 18.6899C34.2015 17.1077 35.8331 15.6491 37.7614 15.2041C38.2064 16.8852 38.9233 18.5168 37.9839 20.2721C37.5884 21.0632 36.9209 21.5576 36.0556 21.7307Z" fill="#001B3D"/>
</g>
</g>
</g>
</g>
<g id="Group_12">
<g id="Group_13">
<g id="Group_14">
<g id="Vector_15">
<path d="M13.6081 4.35102C14.6712 4.17797 15.7589 4.12852 16.8467 4.25213C17.3906 4.3263 17.9345 4.42518 18.4536 4.59824C18.5772 4.64768 18.7256 4.69713 18.8492 4.74657L19.22 4.91962C19.2942 4.94434 19.3931 4.91962 19.4672 4.84546C19.4919 4.82073 19.4919 4.82073 19.5167 4.79601L19.5414 4.77129V4.74657C19.5414 4.74657 19.5414 4.72185 19.5414 4.69713C19.5661 4.54879 19.5908 4.42518 19.6156 4.27685C19.665 4.00491 19.7392 3.73297 19.8133 3.46103C19.9617 2.94187 20.1842 2.42271 20.5055 1.953C20.8269 1.48328 21.2225 1.06301 21.7169 0.791068C22.2114 0.494406 22.7552 0.346075 23.2991 0.296631C23.3733 0.296631 23.4474 0.346075 23.4722 0.444962C23.4722 0.519128 23.4227 0.593293 23.3486 0.618015C22.8541 0.692181 22.3597 0.889956 21.9641 1.1619C21.5686 1.43384 21.2225 1.82939 20.9753 2.24966C20.728 2.66993 20.555 3.16437 20.4561 3.65881C20.4067 3.90603 20.3572 4.15324 20.3325 4.40046C20.3078 4.52407 20.3078 4.64768 20.3078 4.77129V4.82073V4.8949C20.3078 4.94434 20.283 4.99379 20.283 5.04323C20.2583 5.14212 20.2089 5.24101 20.1347 5.33989C20.0111 5.51295 19.8133 5.63656 19.5908 5.686C19.3683 5.73544 19.1458 5.71072 18.9481 5.61184L18.8492 5.56239L18.775 5.51295L18.5278 5.43878C18.4289 5.36462 18.3053 5.33989 18.1817 5.29045C17.7367 5.09268 17.2423 4.94434 16.7478 4.84546C15.7342 4.6724 14.6959 4.62296 13.6576 4.69713C13.5587 4.69713 13.4845 4.62296 13.4598 4.52407C13.4598 4.44991 13.534 4.37574 13.6081 4.35102Z" fill="url(#paint14_linear_6_756)"/>
<path d="M13.6081 4.35102C14.6712 4.17797 15.7589 4.12852 16.8467 4.25213C17.3906 4.3263 17.9345 4.42518 18.4536 4.59824C18.5772 4.64768 18.7256 4.69713 18.8492 4.74657L19.22 4.91962C19.2942 4.94434 19.3931 4.91962 19.4672 4.84546C19.4919 4.82073 19.4919 4.82073 19.5167 4.79601L19.5414 4.77129V4.74657C19.5414 4.74657 19.5414 4.72185 19.5414 4.69713C19.5661 4.54879 19.5908 4.42518 19.6156 4.27685C19.665 4.00491 19.7392 3.73297 19.8133 3.46103C19.9617 2.94187 20.1842 2.42271 20.5055 1.953C20.8269 1.48328 21.2225 1.06301 21.7169 0.791068C22.2114 0.494406 22.7552 0.346075 23.2991 0.296631C23.3733 0.296631 23.4474 0.346075 23.4722 0.444962C23.4722 0.519128 23.4227 0.593293 23.3486 0.618015C22.8541 0.692181 22.3597 0.889956 21.9641 1.1619C21.5686 1.43384 21.2225 1.82939 20.9753 2.24966C20.728 2.66993 20.555 3.16437 20.4561 3.65881C20.4067 3.90603 20.3572 4.15324 20.3325 4.40046C20.3078 4.52407 20.3078 4.64768 20.3078 4.77129V4.82073V4.8949C20.3078 4.94434 20.283 4.99379 20.283 5.04323C20.2583 5.14212 20.2089 5.24101 20.1347 5.33989C20.0111 5.51295 19.8133 5.63656 19.5908 5.686C19.3683 5.73544 19.1458 5.71072 18.9481 5.61184L18.8492 5.56239L18.775 5.51295L18.5278 5.43878C18.4289 5.36462 18.3053 5.33989 18.1817 5.29045C17.7367 5.09268 17.2423 4.94434 16.7478 4.84546C15.7342 4.6724 14.6959 4.62296 13.6576 4.69713C13.5587 4.69713 13.4845 4.62296 13.4598 4.52407C13.4598 4.44991 13.534 4.37574 13.6081 4.35102Z" fill="#001B3D"/>
</g>
</g>
</g>
<g id="Group_15">
<g id="Group_16">
<g id="Vector_16">
<path d="M0.975261 27.1447C1.49442 26.2053 2.13719 25.34 2.90357 24.5489C3.29912 24.1781 3.71939 23.8073 4.18911 23.5106C4.31271 23.4364 4.4116 23.3623 4.55993 23.2881L4.90604 23.1151C4.98021 23.0656 5.02965 22.9914 5.00493 22.8926C5.00493 22.8678 5.00493 22.8431 4.98021 22.8184C4.98021 22.8184 4.98021 22.7937 4.95548 22.7937V22.7689L4.93076 22.7442C4.83187 22.6453 4.73299 22.5465 4.65882 22.4476C4.48577 22.2498 4.31271 22.0273 4.13966 21.8048C3.81828 21.3598 3.54634 20.8654 3.37328 20.3215C3.20023 19.7776 3.12606 19.209 3.22495 18.6404C3.29912 18.0718 3.52161 17.5526 3.81828 17.1076C3.86772 17.0335 3.96661 17.0088 4.04077 17.0582C4.11494 17.1076 4.13966 17.1818 4.09022 17.256C3.843 17.701 3.66995 18.1954 3.64522 18.6898C3.6205 19.1843 3.69467 19.6787 3.89244 20.1237C4.0655 20.5934 4.33744 21.0137 4.65882 21.4092C4.83187 21.607 4.98021 21.7801 5.17798 21.9778C5.27687 22.0767 5.35103 22.1509 5.44992 22.2498L5.49936 22.2745L5.54881 22.324C5.59825 22.3487 5.62297 22.3981 5.6477 22.4476C5.69714 22.5465 5.74658 22.6453 5.77131 22.7442C5.82075 22.9667 5.79603 23.1892 5.69714 23.387C5.59825 23.5848 5.4252 23.7578 5.22742 23.8567L5.10381 23.9062L5.02965 23.9309L4.88132 23.9803C4.75771 24.0298 4.65882 24.0792 4.55993 24.1534C4.11494 24.3759 3.71939 24.6725 3.32384 25.0186C2.55746 25.6861 1.86525 26.4772 1.27192 27.3425C1.22248 27.4167 1.09887 27.4414 1.0247 27.3919C0.950539 27.3178 0.925817 27.2189 0.975261 27.1447Z" fill="url(#paint15_linear_6_756)"/>
<path d="M0.975261 27.1447C1.49442 26.2053 2.13719 25.34 2.90357 24.5489C3.29912 24.1781 3.71939 23.8073 4.18911 23.5106C4.31271 23.4364 4.4116 23.3623 4.55993 23.2881L4.90604 23.1151C4.98021 23.0656 5.02965 22.9914 5.00493 22.8926C5.00493 22.8678 5.00493 22.8431 4.98021 22.8184C4.98021 22.8184 4.98021 22.7937 4.95548 22.7937V22.7689L4.93076 22.7442C4.83187 22.6453 4.73299 22.5465 4.65882 22.4476C4.48577 22.2498 4.31271 22.0273 4.13966 21.8048C3.81828 21.3598 3.54634 20.8654 3.37328 20.3215C3.20023 19.7776 3.12606 19.209 3.22495 18.6404C3.29912 18.0718 3.52161 17.5526 3.81828 17.1076C3.86772 17.0335 3.96661 17.0088 4.04077 17.0582C4.11494 17.1076 4.13966 17.1818 4.09022 17.256C3.843 17.701 3.66995 18.1954 3.64522 18.6898C3.6205 19.1843 3.69467 19.6787 3.89244 20.1237C4.0655 20.5934 4.33744 21.0137 4.65882 21.4092C4.83187 21.607 4.98021 21.7801 5.17798 21.9778C5.27687 22.0767 5.35103 22.1509 5.44992 22.2498L5.49936 22.2745L5.54881 22.324C5.59825 22.3487 5.62297 22.3981 5.6477 22.4476C5.69714 22.5465 5.74658 22.6453 5.77131 22.7442C5.82075 22.9667 5.79603 23.1892 5.69714 23.387C5.59825 23.5848 5.4252 23.7578 5.22742 23.8567L5.10381 23.9062L5.02965 23.9309L4.88132 23.9803C4.75771 24.0298 4.65882 24.0792 4.55993 24.1534C4.11494 24.3759 3.71939 24.6725 3.32384 25.0186C2.55746 25.6861 1.86525 26.4772 1.27192 27.3425C1.22248 27.4167 1.09887 27.4414 1.0247 27.3919C0.950539 27.3178 0.925817 27.2189 0.975261 27.1447Z" fill="#001B3D"/>
</g>
</g>
</g>
<g id="Group_17">
<g id="Group_18">
<g id="Vector_17">
<path d="M10.8887 51.2485C10.4685 50.2349 10.1965 49.1966 10.0729 48.1335C10.0235 47.5896 9.99875 47.0458 10.0729 46.4771C10.0976 46.3288 10.0976 46.2052 10.1224 46.0569L10.1965 45.6613C10.2212 45.5872 10.1718 45.4883 10.0729 45.4388C10.0482 45.4141 10.0235 45.4141 9.99875 45.4141H9.97402H9.9493C9.9493 45.4141 9.92458 45.4141 9.89986 45.4141C9.75153 45.4141 9.62792 45.4388 9.47959 45.4388C9.20765 45.4636 8.93571 45.4388 8.63904 45.4388C8.09516 45.4141 7.52656 45.2905 7.0074 45.0927C6.48824 44.8949 5.9938 44.5736 5.59825 44.178C5.2027 43.7577 4.93076 43.2633 4.78243 42.7441C4.75771 42.67 4.80715 42.5711 4.88132 42.5464C4.95548 42.5216 5.02965 42.5711 5.07909 42.6205C5.27687 43.0902 5.54881 43.5105 5.91964 43.8566C6.29046 44.2027 6.73546 44.4252 7.20517 44.5736C7.67489 44.7219 8.16933 44.7713 8.68849 44.7713C8.93571 44.7713 9.18292 44.7466 9.45487 44.7219C9.57847 44.6972 9.70208 44.6972 9.82569 44.6725H9.87514H9.9493C9.99875 44.6725 10.0482 44.6725 10.1224 44.6725C10.2212 44.6725 10.3449 44.6972 10.4437 44.7466C10.6415 44.8455 10.7898 44.9938 10.9135 45.1916C11.0123 45.3894 11.0371 45.6366 10.9876 45.8344L10.9629 45.958L10.9382 46.0569L10.8887 46.2299C10.8393 46.3535 10.8393 46.4771 10.8146 46.6008C10.7157 47.0952 10.691 47.5896 10.7157 48.1088C10.7651 49.1224 10.9629 50.1607 11.2596 51.1496C11.2843 51.2485 11.2348 51.3474 11.136 51.3721C11.0123 51.3721 10.9135 51.3226 10.8887 51.2485Z" fill="url(#paint16_linear_6_756)"/>
<path d="M10.8887 51.2485C10.4685 50.2349 10.1965 49.1966 10.0729 48.1335C10.0235 47.5896 9.99875 47.0458 10.0729 46.4771C10.0976 46.3288 10.0976 46.2052 10.1224 46.0569L10.1965 45.6613C10.2212 45.5872 10.1718 45.4883 10.0729 45.4388C10.0482 45.4141 10.0235 45.4141 9.99875 45.4141H9.97402H9.9493C9.9493 45.4141 9.92458 45.4141 9.89986 45.4141C9.75153 45.4141 9.62792 45.4388 9.47959 45.4388C9.20765 45.4636 8.93571 45.4388 8.63904 45.4388C8.09516 45.4141 7.52656 45.2905 7.0074 45.0927C6.48824 44.8949 5.9938 44.5736 5.59825 44.178C5.2027 43.7577 4.93076 43.2633 4.78243 42.7441C4.75771 42.67 4.80715 42.5711 4.88132 42.5464C4.95548 42.5216 5.02965 42.5711 5.07909 42.6205C5.27687 43.0902 5.54881 43.5105 5.91964 43.8566C6.29046 44.2027 6.73546 44.4252 7.20517 44.5736C7.67489 44.7219 8.16933 44.7713 8.68849 44.7713C8.93571 44.7713 9.18292 44.7466 9.45487 44.7219C9.57847 44.6972 9.70208 44.6972 9.82569 44.6725H9.87514H9.9493C9.99875 44.6725 10.0482 44.6725 10.1224 44.6725C10.2212 44.6725 10.3449 44.6972 10.4437 44.7466C10.6415 44.8455 10.7898 44.9938 10.9135 45.1916C11.0123 45.3894 11.0371 45.6366 10.9876 45.8344L10.9629 45.958L10.9382 46.0569L10.8887 46.2299C10.8393 46.3535 10.8393 46.4771 10.8146 46.6008C10.7157 47.0952 10.691 47.5896 10.7157 48.1088C10.7651 49.1224 10.9629 50.1607 11.2596 51.1496C11.2843 51.2485 11.2348 51.3474 11.136 51.3721C11.0123 51.3721 10.9135 51.3226 10.8887 51.2485Z" fill="#001B3D"/>
</g>
</g>
</g>
<g id="Group_19">
<g id="Group_20">
<g id="Vector_18">
<path d="M35.9073 58.5166C34.869 58.2199 33.8801 57.7749 32.9654 57.2063C32.4957 56.9097 32.0754 56.5883 31.6551 56.1927C31.5562 56.0938 31.4573 55.9949 31.3584 55.8961L31.1112 55.5994C31.0618 55.5252 30.9629 55.5252 30.864 55.55C30.8393 55.55 30.8146 55.5747 30.7898 55.5747L30.7651 55.5994L30.7404 55.6241C30.7404 55.6241 30.7157 55.6488 30.7157 55.6736C30.6415 55.7972 30.5673 55.8961 30.4685 56.0197C30.3201 56.2422 30.1224 56.4647 29.9493 56.6624C29.5785 57.0827 29.1582 57.4535 28.6638 57.7255C28.1693 58.0221 27.6254 58.1952 27.0816 58.2446C26.513 58.2941 25.9691 58.1952 25.4499 57.9974C25.3758 57.9727 25.3263 57.8738 25.351 57.7996C25.3758 57.7255 25.4499 57.676 25.5241 57.7008C26.0185 57.8491 26.513 57.8985 27.0074 57.8244C27.5018 57.7502 27.9468 57.5524 28.3671 57.2558C28.7627 56.9838 29.1335 56.613 29.4301 56.2174C29.5785 56.0197 29.7268 55.8219 29.8504 55.5994C29.9246 55.5005 29.974 55.3769 30.0482 55.278L30.0729 55.2286L30.1224 55.1544C30.1471 55.105 30.1965 55.0802 30.2212 55.0308C30.2954 54.9566 30.3943 54.8825 30.4932 54.833C30.691 54.7341 30.9135 54.7094 31.136 54.7589C31.3584 54.8083 31.5562 54.9319 31.6798 55.105L31.754 55.2038L31.8034 55.278L31.9023 55.4263C31.9765 55.5252 32.0507 55.6241 32.1248 55.723C32.4462 56.0938 32.8418 56.4399 33.2373 56.7366C34.0531 57.3299 34.9926 57.8244 35.9567 58.2199C36.0556 58.2446 36.105 58.3682 36.0556 58.4424C36.105 58.4919 36.0062 58.5413 35.9073 58.5166Z" fill="url(#paint17_linear_6_756)"/>
<path d="M35.9073 58.5166C34.869 58.2199 33.8801 57.7749 32.9654 57.2063C32.4957 56.9097 32.0754 56.5883 31.6551 56.1927C31.5562 56.0938 31.4573 55.9949 31.3584 55.8961L31.1112 55.5994C31.0618 55.5252 30.9629 55.5252 30.864 55.55C30.8393 55.55 30.8146 55.5747 30.7898 55.5747L30.7651 55.5994L30.7404 55.6241C30.7404 55.6241 30.7157 55.6488 30.7157 55.6736C30.6415 55.7972 30.5673 55.8961 30.4685 56.0197C30.3201 56.2422 30.1224 56.4647 29.9493 56.6624C29.5785 57.0827 29.1582 57.4535 28.6638 57.7255C28.1693 58.0221 27.6254 58.1952 27.0816 58.2446C26.513 58.2941 25.9691 58.1952 25.4499 57.9974C25.3758 57.9727 25.3263 57.8738 25.351 57.7996C25.3758 57.7255 25.4499 57.676 25.5241 57.7008C26.0185 57.8491 26.513 57.8985 27.0074 57.8244C27.5018 57.7502 27.9468 57.5524 28.3671 57.2558C28.7627 56.9838 29.1335 56.613 29.4301 56.2174C29.5785 56.0197 29.7268 55.8219 29.8504 55.5994C29.9246 55.5005 29.974 55.3769 30.0482 55.278L30.0729 55.2286L30.1224 55.1544C30.1471 55.105 30.1965 55.0802 30.2212 55.0308C30.2954 54.9566 30.3943 54.8825 30.4932 54.833C30.691 54.7341 30.9135 54.7094 31.136 54.7589C31.3584 54.8083 31.5562 54.9319 31.6798 55.105L31.754 55.2038L31.8034 55.278L31.9023 55.4263C31.9765 55.5252 32.0507 55.6241 32.1248 55.723C32.4462 56.0938 32.8418 56.4399 33.2373 56.7366C34.0531 57.3299 34.9926 57.8244 35.9567 58.2199C36.0556 58.2446 36.105 58.3682 36.0556 58.4424C36.105 58.4919 36.0062 58.5413 35.9073 58.5166Z" fill="#001B3D"/>
</g>
</g>
</g>
<g id="Group_21">
<g id="Group_22">
<g id="Vector_19">
<path d="M57.1928 43.4611C56.3028 44.0791 55.3634 44.5736 54.3251 44.9444C53.8059 45.1175 53.262 45.2658 52.7182 45.3152C52.5698 45.3152 52.4462 45.3647 52.2979 45.34H51.9023C51.8282 45.34 51.754 45.4141 51.7046 45.513C51.7046 45.5377 51.7046 45.5625 51.6798 45.5872V45.6119V45.6366C51.6798 45.6366 51.6798 45.6613 51.7046 45.6861C51.754 45.8097 51.7787 45.958 51.8282 46.0816C51.9023 46.3536 51.9518 46.6255 52.0012 46.8974C52.1001 47.4413 52.1248 48.0099 52.0259 48.5538C51.9518 49.0977 51.754 49.6663 51.4326 50.136C51.1112 50.6057 50.691 50.9765 50.2212 51.2485C50.1471 51.2979 50.0482 51.2732 50.0235 51.199C49.974 51.1249 49.9987 51.0507 50.0729 51.0013C50.4932 50.7046 50.8393 50.3338 51.0865 49.9135C51.3337 49.4932 51.4573 48.9988 51.4821 48.5044C51.5068 48.0099 51.4573 47.5155 51.3337 47.021C51.2843 46.7738 51.2101 46.5266 51.1112 46.3041C51.0618 46.1805 51.0123 46.0569 50.9876 45.958L50.9629 45.9086L50.9382 45.8344C50.9135 45.785 50.9135 45.7355 50.9135 45.6861C50.8887 45.5872 50.8887 45.4636 50.9382 45.3647C50.9876 45.1422 51.1112 44.9691 51.2596 44.8208C51.4326 44.6725 51.6551 44.5983 51.8776 44.5983H52.0012H52.1001H52.2732C52.3968 44.623 52.5204 44.5983 52.644 44.5983C53.1384 44.5736 53.6329 44.4994 54.1273 44.3511C55.1162 44.0791 56.0803 43.6589 56.9703 43.1397C57.0445 43.0903 57.1681 43.115 57.2175 43.2139C57.2917 43.3128 57.267 43.4117 57.1928 43.4611Z" fill="url(#paint18_linear_6_756)"/>
<path d="M57.1928 43.4611C56.3028 44.0791 55.3634 44.5736 54.3251 44.9444C53.8059 45.1175 53.262 45.2658 52.7182 45.3152C52.5698 45.3152 52.4462 45.3647 52.2979 45.34H51.9023C51.8282 45.34 51.754 45.4141 51.7046 45.513C51.7046 45.5377 51.7046 45.5625 51.6798 45.5872V45.6119V45.6366C51.6798 45.6366 51.6798 45.6613 51.7046 45.6861C51.754 45.8097 51.7787 45.958 51.8282 46.0816C51.9023 46.3536 51.9518 46.6255 52.0012 46.8974C52.1001 47.4413 52.1248 48.0099 52.0259 48.5538C51.9518 49.0977 51.754 49.6663 51.4326 50.136C51.1112 50.6057 50.691 50.9765 50.2212 51.2485C50.1471 51.2979 50.0482 51.2732 50.0235 51.199C49.974 51.1249 49.9987 51.0507 50.0729 51.0013C50.4932 50.7046 50.8393 50.3338 51.0865 49.9135C51.3337 49.4932 51.4573 48.9988 51.4821 48.5044C51.5068 48.0099 51.4573 47.5155 51.3337 47.021C51.2843 46.7738 51.2101 46.5266 51.1112 46.3041C51.0618 46.1805 51.0123 46.0569 50.9876 45.958L50.9629 45.9086L50.9382 45.8344C50.9135 45.785 50.9135 45.7355 50.9135 45.6861C50.8887 45.5872 50.8887 45.4636 50.9382 45.3647C50.9876 45.1422 51.1112 44.9691 51.2596 44.8208C51.4326 44.6725 51.6551 44.5983 51.8776 44.5983H52.0012H52.1001H52.2732C52.3968 44.623 52.5204 44.5983 52.644 44.5983C53.1384 44.5736 53.6329 44.4994 54.1273 44.3511C55.1162 44.0791 56.0803 43.6589 56.9703 43.1397C57.0445 43.0903 57.1681 43.115 57.2175 43.2139C57.2917 43.3128 57.267 43.4117 57.1928 43.4611Z" fill="#001B3D"/>
</g>
</g>
</g>
<g id="Group_23">
<g id="Group_24">
<g id="Vector_20">
<path d="M58.7256 17.4536C58.6514 18.5414 58.4536 19.5797 58.1075 20.618C57.9345 21.1372 57.6873 21.6316 57.3906 22.1013C57.3164 22.2249 57.2423 22.3485 57.1434 22.4474L56.8962 22.7688C56.8467 22.843 56.8467 22.9419 56.9209 23.016C56.9209 23.0408 56.9456 23.0408 56.9703 23.0655L56.995 23.0902H57.0198C57.0198 23.0902 57.0445 23.0902 57.0692 23.1149C57.1928 23.1644 57.3164 23.2138 57.4648 23.2632C57.712 23.3621 57.9592 23.4857 58.2064 23.6341C58.7009 23.906 59.1458 24.2274 59.5414 24.6477C59.9369 25.0432 60.2336 25.5377 60.4067 26.0815C60.5797 26.6254 60.6044 27.194 60.5303 27.7379C60.5303 27.8121 60.4314 27.8862 60.3572 27.8615C60.2831 27.8615 60.2089 27.7874 60.2336 27.7132C60.2583 27.194 60.2089 26.6996 60.0111 26.2299C59.8381 25.7602 59.5414 25.3646 59.1706 25.0432C58.7997 24.7218 58.3795 24.4499 57.9097 24.2274C57.6873 24.1285 57.44 24.0296 57.2175 23.9555C57.0939 23.906 56.9703 23.8813 56.8467 23.8319L56.7973 23.8071L56.7231 23.7824C56.6737 23.7577 56.6242 23.733 56.5748 23.7082C56.4759 23.6588 56.4017 23.5846 56.3276 23.4857C56.1792 23.3127 56.1051 23.1149 56.1051 22.8924C56.1051 22.6699 56.1792 22.4474 56.3276 22.2744L56.4017 22.1755L56.4512 22.1013L56.5748 21.953C56.6489 21.8541 56.7231 21.7552 56.7973 21.6563C57.0939 21.2608 57.3411 20.8158 57.5389 20.3461C57.9345 19.4066 58.2311 18.393 58.3795 17.3794C58.4042 17.2806 58.4784 17.2064 58.5772 17.2311C58.6514 17.2806 58.7256 17.3547 58.7256 17.4536Z" fill="url(#paint19_linear_6_756)"/>
<path d="M58.7256 17.4536C58.6514 18.5414 58.4536 19.5797 58.1075 20.618C57.9345 21.1372 57.6873 21.6316 57.3906 22.1013C57.3164 22.2249 57.2423 22.3485 57.1434 22.4474L56.8962 22.7688C56.8467 22.843 56.8467 22.9419 56.9209 23.016C56.9209 23.0408 56.9456 23.0408 56.9703 23.0655L56.995 23.0902H57.0198C57.0198 23.0902 57.0445 23.0902 57.0692 23.1149C57.1928 23.1644 57.3164 23.2138 57.4648 23.2632C57.712 23.3621 57.9592 23.4857 58.2064 23.6341C58.7009 23.906 59.1458 24.2274 59.5414 24.6477C59.9369 25.0432 60.2336 25.5377 60.4067 26.0815C60.5797 26.6254 60.6044 27.194 60.5303 27.7379C60.5303 27.8121 60.4314 27.8862 60.3572 27.8615C60.2831 27.8615 60.2089 27.7874 60.2336 27.7132C60.2583 27.194 60.2089 26.6996 60.0111 26.2299C59.8381 25.7602 59.5414 25.3646 59.1706 25.0432C58.7997 24.7218 58.3795 24.4499 57.9097 24.2274C57.6873 24.1285 57.44 24.0296 57.2175 23.9555C57.0939 23.906 56.9703 23.8813 56.8467 23.8319L56.7973 23.8071L56.7231 23.7824C56.6737 23.7577 56.6242 23.733 56.5748 23.7082C56.4759 23.6588 56.4017 23.5846 56.3276 23.4857C56.1792 23.3127 56.1051 23.1149 56.1051 22.8924C56.1051 22.6699 56.1792 22.4474 56.3276 22.2744L56.4017 22.1755L56.4512 22.1013L56.5748 21.953C56.6489 21.8541 56.7231 21.7552 56.7973 21.6563C57.0939 21.2608 57.3411 20.8158 57.5389 20.3461C57.9345 19.4066 58.2311 18.393 58.3795 17.3794C58.4042 17.2806 58.4784 17.2064 58.5772 17.2311C58.6514 17.2806 58.7256 17.3547 58.7256 17.4536Z" fill="#001B3D"/>
</g>
</g>
</g>
<g id="Group_25">
<g id="Group_26">
<g id="Vector_21">
<path d="M39.3189 0.0494484C40.1347 0.766383 40.8269 1.5822 41.3955 2.52164C41.6922 2.99135 41.9394 3.48579 42.1125 4.00495C42.1619 4.12856 42.2114 4.27689 42.2361 4.4005L42.335 4.79605C42.3597 4.87021 42.4339 4.94438 42.5327 4.94438C42.5575 4.94438 42.5822 4.94438 42.6069 4.94438H42.6316H42.6563C42.6563 4.94438 42.6811 4.91966 42.7058 4.91966C42.8294 4.84549 42.953 4.77133 43.0766 4.72188C43.3238 4.59827 43.5711 4.47467 43.8183 4.37578C44.3374 4.178 44.8813 4.02967 45.4252 3.98023C45.9938 3.93078 46.5624 4.00495 47.0816 4.20272C47.6007 4.4005 48.0704 4.74661 48.4413 5.14216C48.4907 5.1916 48.4907 5.29049 48.4413 5.36465C48.3918 5.4141 48.2929 5.4141 48.2435 5.36465C47.8727 5.01855 47.4277 4.74661 46.958 4.623C46.4882 4.47467 45.9938 4.44994 45.4994 4.54883C45.0049 4.623 44.5352 4.79605 44.0902 5.01855C43.8677 5.14216 43.6452 5.24104 43.4227 5.38937C43.3238 5.46354 43.2002 5.53771 43.1013 5.58715L43.0519 5.61187L42.9777 5.66131C42.9283 5.68604 42.8788 5.71076 42.8294 5.73548C42.7305 5.7602 42.6069 5.80965 42.508 5.78492C42.2855 5.78492 42.0877 5.71076 41.89 5.58715C41.7169 5.46354 41.5933 5.24104 41.5439 5.04327L41.5191 4.91966L41.4944 4.82077L41.4697 4.64772C41.445 4.52411 41.4203 4.4005 41.3955 4.27689C41.2719 3.80717 41.0741 3.33746 40.8269 2.86774C40.3325 1.97776 39.7144 1.11249 39.0222 0.370833C38.9481 0.296667 38.9481 0.19778 39.0222 0.123614C39.1458 -0.0247172 39.2447 -0.0247172 39.3189 0.0494484Z" fill="url(#paint20_linear_6_756)"/>
<path d="M39.3189 0.0494484C40.1347 0.766383 40.8269 1.5822 41.3955 2.52164C41.6922 2.99135 41.9394 3.48579 42.1125 4.00495C42.1619 4.12856 42.2114 4.27689 42.2361 4.4005L42.335 4.79605C42.3597 4.87021 42.4339 4.94438 42.5327 4.94438C42.5575 4.94438 42.5822 4.94438 42.6069 4.94438H42.6316H42.6563C42.6563 4.94438 42.6811 4.91966 42.7058 4.91966C42.8294 4.84549 42.953 4.77133 43.0766 4.72188C43.3238 4.59827 43.5711 4.47467 43.8183 4.37578C44.3374 4.178 44.8813 4.02967 45.4252 3.98023C45.9938 3.93078 46.5624 4.00495 47.0816 4.20272C47.6007 4.4005 48.0704 4.74661 48.4413 5.14216C48.4907 5.1916 48.4907 5.29049 48.4413 5.36465C48.3918 5.4141 48.2929 5.4141 48.2435 5.36465C47.8727 5.01855 47.4277 4.74661 46.958 4.623C46.4882 4.47467 45.9938 4.44994 45.4994 4.54883C45.0049 4.623 44.5352 4.79605 44.0902 5.01855C43.8677 5.14216 43.6452 5.24104 43.4227 5.38937C43.3238 5.46354 43.2002 5.53771 43.1013 5.58715L43.0519 5.61187L42.9777 5.66131C42.9283 5.68604 42.8788 5.71076 42.8294 5.73548C42.7305 5.7602 42.6069 5.80965 42.508 5.78492C42.2855 5.78492 42.0877 5.71076 41.89 5.58715C41.7169 5.46354 41.5933 5.24104 41.5439 5.04327L41.5191 4.91966L41.4944 4.82077L41.4697 4.64772C41.445 4.52411 41.4203 4.4005 41.3955 4.27689C41.2719 3.80717 41.0741 3.33746 40.8269 2.86774C40.3325 1.97776 39.7144 1.11249 39.0222 0.370833C38.9481 0.296667 38.9481 0.19778 39.0222 0.123614C39.1458 -0.0247172 39.2447 -0.0247172 39.3189 0.0494484Z" fill="#001B3D"/>
</g>
</g>
</g>
</g>
<g id="Group_27">
<g id="Vector_22">
<path d="M34.1026 28.9C34.1026 30.4822 32.817 31.7677 31.2348 31.7677C29.6526 31.7677 28.3671 30.4822 28.3671 28.9C28.3671 27.3178 29.6526 26.0322 31.2348 26.0322C32.817 26.0322 34.1026 27.3178 34.1026 28.9Z" fill="url(#paint21_linear_6_756)"/>
<path d="M34.1026 28.9C34.1026 30.4822 32.817 31.7677 31.2348 31.7677C29.6526 31.7677 28.3671 30.4822 28.3671 28.9C28.3671 27.3178 29.6526 26.0322 31.2348 26.0322C32.817 26.0322 34.1026 27.3178 34.1026 28.9Z" fill="#001B3D"/>
</g>
</g>
<g id="Group_28">
<g id="Vector_23">
<path d="M61.3955 21.8541C61.5933 22.7688 60.8022 23.5599 59.8875 23.3621C59.4178 23.2632 59.047 22.8924 58.9481 22.4227C58.7503 21.508 59.5414 20.7169 60.4561 20.9146C60.9258 21.0135 61.2966 21.3843 61.3955 21.8541Z" fill="url(#paint22_linear_6_756)"/>
<path d="M61.3955 21.8541C61.5933 22.7688 60.8022 23.5599 59.8875 23.3621C59.4178 23.2632 59.047 22.8924 58.9481 22.4227C58.7503 21.508 59.5414 20.7169 60.4561 20.9146C60.9258 21.0135 61.2966 21.3843 61.3955 21.8541Z" fill="#001B3D"/>
</g>
</g>
<g id="Group_29">
<g id="Vector_24">
<path d="M55.7837 47.293C55.9814 48.2077 55.1903 48.9988 54.2756 48.8011C53.8059 48.7022 53.4351 48.3313 53.3362 47.8616C53.1384 46.9469 53.9295 46.1558 54.8442 46.3536C55.314 46.4772 55.6848 46.848 55.7837 47.293Z" fill="url(#paint23_linear_6_756)"/>
<path d="M55.7837 47.293C55.9814 48.2077 55.1903 48.9988 54.2756 48.8011C53.8059 48.7022 53.4351 48.3313 53.3362 47.8616C53.1384 46.9469 53.9295 46.1558 54.8442 46.3536C55.314 46.4772 55.6848 46.848 55.7837 47.293Z" fill="#001B3D"/>
</g>
</g>
<g id="Group_30">
<g id="Vector_25">
<path d="M45.178 1.43389C45.3758 2.3486 44.5847 3.1397 43.6699 2.94193C43.2002 2.84304 42.8294 2.47221 42.7305 2.0025C42.5327 1.08779 43.3238 0.296686 44.2386 0.494461C44.7083 0.593349 45.0791 0.964177 45.178 1.43389Z" fill="url(#paint24_linear_6_756)"/>
<path d="M45.178 1.43389C45.3758 2.3486 44.5847 3.1397 43.6699 2.94193C43.2002 2.84304 42.8294 2.47221 42.7305 2.0025C42.5327 1.08779 43.3238 0.296686 44.2386 0.494461C44.7083 0.593349 45.0791 0.964177 45.178 1.43389Z" fill="#001B3D"/>
</g>
</g>
<g id="Group_31">
<g id="Vector_26">
<path d="M19.0222 1.85406C19.22 2.76877 18.4289 3.55987 17.5142 3.36209C17.0445 3.26321 16.6737 2.89238 16.5748 2.42266C16.377 1.50795 17.1681 0.716852 18.0828 0.914627C18.5525 1.01351 18.9233 1.38434 19.0222 1.85406Z" fill="url(#paint25_linear_6_756)"/>
<path d="M19.0222 1.85406C19.22 2.76877 18.4289 3.55987 17.5142 3.36209C17.0445 3.26321 16.6737 2.89238 16.5748 2.42266C16.377 1.50795 17.1681 0.716852 18.0828 0.914627C18.5525 1.01351 18.9233 1.38434 19.0222 1.85406Z" fill="#001B3D"/>
</g>
</g>
<g id="Group_32">
<g id="Vector_27">
<path d="M3.0519 22.0025C3.24967 22.9172 2.45857 23.7083 1.54386 23.5105C1.07415 23.4116 0.703321 23.0408 0.604433 22.5711C0.406658 21.6564 1.19776 20.8653 2.11247 21.0631C2.58218 21.162 2.95301 21.5328 3.0519 22.0025Z" fill="url(#paint26_linear_6_756)"/>
<path d="M3.0519 22.0025C3.24967 22.9172 2.45857 23.7083 1.54386 23.5105C1.07415 23.4116 0.703321 23.0408 0.604433 22.5711C0.406658 21.6564 1.19776 20.8653 2.11247 21.0631C2.58218 21.162 2.95301 21.5328 3.0519 22.0025Z" fill="#001B3D"/>
</g>
</g>
<g id="Group_33">
<g id="Vector_28">
<path d="M8.73793 47.7378C8.93571 48.6526 8.14461 49.4437 7.2299 49.2459C6.76018 49.147 6.38935 48.7762 6.29046 48.3064C6.09269 47.3917 6.88379 46.6006 7.7985 46.7984C8.26822 46.8973 8.63904 47.2681 8.73793 47.7378Z" fill="url(#paint27_linear_6_756)"/>
<path d="M8.73793 47.7378C8.93571 48.6526 8.14461 49.4437 7.2299 49.2459C6.76018 49.147 6.38935 48.7762 6.29046 48.3064C6.09269 47.3917 6.88379 46.6006 7.7985 46.7984C8.26822 46.8973 8.63904 47.2681 8.73793 47.7378Z" fill="#001B3D"/>
</g>
</g>
<g id="Group_34">
<g id="Vector_29">
<path d="M32.4215 58.4424C32.6193 59.3571 31.8282 60.1482 30.9135 59.9505C30.4437 59.8516 30.0729 59.4808 29.974 59.011C29.7763 58.0963 30.5674 57.3052 31.4821 57.503C31.9518 57.6019 32.3226 57.9727 32.4215 58.4424Z" fill="url(#paint28_linear_6_756)"/>
<path d="M32.4215 58.4424C32.6193 59.3571 31.8282 60.1482 30.9135 59.9505C30.4437 59.8516 30.0729 59.4808 29.974 59.011C29.7763 58.0963 30.5674 57.3052 31.4821 57.503C31.9518 57.6019 32.3226 57.9727 32.4215 58.4424Z" fill="#001B3D"/>
</g>
</g>
<g id="Group_35">
<g id="Vector_30">
<path d="M23.0025 11.3225C23.0025 11.6686 22.7058 11.9652 22.3597 11.9652C22.0136 11.9652 21.7169 11.6686 21.7169 11.3225C21.7169 10.9763 22.0136 10.6797 22.3597 10.6797C22.7058 10.6797 23.0025 10.9516 23.0025 11.3225Z" fill="url(#paint29_linear_6_756)"/>
<path d="M23.0025 11.3225C23.0025 11.6686 22.7058 11.9652 22.3597 11.9652C22.0136 11.9652 21.7169 11.6686 21.7169 11.3225C21.7169 10.9763 22.0136 10.6797 22.3597 10.6797C22.7058 10.6797 23.0025 10.9516 23.0025 11.3225Z" fill="#001B3D"/>
</g>
<g id="Vector_31">
<path d="M12.2484 24.1284C12.5204 24.3509 12.5698 24.7465 12.3473 25.0431C12.1248 25.3151 11.7293 25.3645 11.4326 25.142C11.1607 24.9195 11.1112 24.524 11.3337 24.2273C11.5562 23.9553 11.9518 23.9059 12.2484 24.1284Z" fill="url(#paint30_linear_6_756)"/>
<path d="M12.2484 24.1284C12.5204 24.3509 12.5698 24.7465 12.3473 25.0431C12.1248 25.3151 11.7293 25.3645 11.4326 25.142C11.1607 24.9195 11.1112 24.524 11.3337 24.2273C11.5562 23.9553 11.9518 23.9059 12.2484 24.1284Z" fill="#001B3D"/>
</g>
<g id="Vector_32">
<path d="M15.5612 40.5438C15.9073 40.4696 16.2534 40.6921 16.3275 41.0382C16.4017 41.3843 16.1792 41.7305 15.8331 41.8046C15.487 41.8788 15.1409 41.6563 15.0667 41.3102C14.9926 40.9641 15.2151 40.618 15.5612 40.5438Z" fill="url(#paint31_linear_6_756)"/>
<path d="M15.5612 40.5438C15.9073 40.4696 16.2534 40.6921 16.3275 41.0382C16.4017 41.3843 16.1792 41.7305 15.8331 41.8046C15.487 41.8788 15.1409 41.6563 15.0667 41.3102C14.9926 40.9641 15.2151 40.618 15.5612 40.5438Z" fill="#001B3D"/>
</g>
<g id="Vector_33">
<path d="M30.4437 48.1829C30.5921 47.8615 30.9876 47.7379 31.309 47.8863C31.6304 48.0346 31.754 48.4301 31.6057 48.7515C31.4573 49.0729 31.0618 49.1965 30.7404 49.0482C30.419 48.8751 30.2954 48.4796 30.4437 48.1829Z" fill="url(#paint32_linear_6_756)"/>
<path d="M30.4437 48.1829C30.5921 47.8615 30.9876 47.7379 31.309 47.8863C31.6304 48.0346 31.754 48.4301 31.6057 48.7515C31.4573 49.0729 31.0618 49.1965 30.7404 49.0482C30.419 48.8751 30.2954 48.4796 30.4437 48.1829Z" fill="#001B3D"/>
</g>
<g id="Vector_34">
<path d="M45.6971 41.2855C45.5488 40.9641 45.6724 40.5685 45.9938 40.4202C46.3152 40.2719 46.7107 40.3955 46.8591 40.7168C47.0074 41.0382 46.8838 41.4338 46.5624 41.5821C46.241 41.7552 45.8455 41.6068 45.6971 41.2855Z" fill="url(#paint33_linear_6_756)"/>
<path d="M45.6971 41.2855C45.5488 40.9641 45.6724 40.5685 45.9938 40.4202C46.3152 40.2719 46.7107 40.3955 46.8591 40.7168C47.0074 41.0382 46.8838 41.4338 46.5624 41.5821C46.241 41.7552 45.8455 41.6068 45.6971 41.2855Z" fill="#001B3D"/>
</g>
<g id="Vector_35">
<path d="M49.8257 25.0678C49.4796 24.9936 49.2571 24.6475 49.3313 24.3014C49.4054 23.9553 49.7515 23.7328 50.0976 23.807C50.4437 23.8812 50.6662 24.2273 50.5921 24.5734C50.5179 24.9442 50.1718 25.142 49.8257 25.0678Z" fill="url(#paint34_linear_6_756)"/>
<path d="M49.8257 25.0678C49.4796 24.9936 49.2571 24.6475 49.3313 24.3014C49.4054 23.9553 49.7515 23.7328 50.0976 23.807C50.4437 23.8812 50.6662 24.2273 50.5921 24.5734C50.5179 24.9442 50.1718 25.142 49.8257 25.0678Z" fill="#001B3D"/>
</g>
<g id="Vector_36">
<path d="M39.7144 11.7428C39.4425 11.9653 39.0222 11.9159 38.7997 11.6439C38.5772 11.372 38.6267 10.9517 38.8986 10.7292C39.1706 10.5067 39.5908 10.5562 39.8133 10.8281C40.0358 11.1001 39.9864 11.5203 39.7144 11.7428Z" fill="url(#paint35_linear_6_756)"/>
<path d="M39.7144 11.7428C39.4425 11.9653 39.0222 11.9159 38.7997 11.6439C38.5772 11.372 38.6267 10.9517 38.8986 10.7292C39.1706 10.5067 39.5908 10.5562 39.8133 10.8281C40.0358 11.1001 39.9864 11.5203 39.7144 11.7428Z" fill="#001B3D"/>
</g>
</g>
</g>
</g>
<defs>
<linearGradient id="paint0_linear_6_756" x1="23.74" y1="-12.4819" x2="41.2942" y2="-9.20974" gradientUnits="userSpaceOnUse">
<stop stop-color="#5B3F24"/>
<stop offset="0.15" stop-color="#8B6A36"/>
<stop offset="0.37" stop-color="#CAB985"/>
<stop offset="0.41" stop-color="#C7B47F"/>
<stop offset="0.53" stop-color="#C1AA73"/>
<stop offset="0.65" stop-color="#BFA66F"/>
<stop offset="0.84" stop-color="#CEBD89"/>
<stop offset="0.88" stop-color="#CBBA86"/>
<stop offset="0.92" stop-color="#C3B07C"/>
<stop offset="0.95" stop-color="#B69F6B"/>
<stop offset="0.98" stop-color="#A38753"/>
<stop offset="1" stop-color="#90703C"/>
</linearGradient>
<linearGradient id="paint1_linear_6_756" x1="7.03212" y1="-9.14396" x2="24.0156" y2="-6.65435" gradientUnits="userSpaceOnUse">
<stop stop-color="#5B3F24"/>
<stop offset="0.15" stop-color="#8B6A36"/>
<stop offset="0.37" stop-color="#CAB985"/>
<stop offset="0.41" stop-color="#C7B47F"/>
<stop offset="0.53" stop-color="#C1AA73"/>
<stop offset="0.65" stop-color="#BFA66F"/>
<stop offset="0.84" stop-color="#CEBD89"/>
<stop offset="0.88" stop-color="#CBBA86"/>
<stop offset="0.92" stop-color="#C3B07C"/>
<stop offset="0.95" stop-color="#B69F6B"/>
<stop offset="0.98" stop-color="#A38753"/>
<stop offset="1" stop-color="#90703C"/>
</linearGradient>
<linearGradient id="paint2_linear_6_756" x1="3.44699" y1="9.75272" x2="18.9887" y2="11.8112" gradientUnits="userSpaceOnUse">
<stop stop-color="#5B3F24"/>
<stop offset="0.15" stop-color="#8B6A36"/>
<stop offset="0.37" stop-color="#CAB985"/>
<stop offset="0.41" stop-color="#C7B47F"/>
<stop offset="0.53" stop-color="#C1AA73"/>
<stop offset="0.65" stop-color="#BFA66F"/>
<stop offset="0.84" stop-color="#CEBD89"/>
<stop offset="0.88" stop-color="#CBBA86"/>
<stop offset="0.92" stop-color="#C3B07C"/>
<stop offset="0.95" stop-color="#B69F6B"/>
<stop offset="0.98" stop-color="#A38753"/>
<stop offset="1" stop-color="#90703C"/>
</linearGradient>
<linearGradient id="paint3_linear_6_756" x1="13.791" y1="27.74" x2="31.7167" y2="31.0146" gradientUnits="userSpaceOnUse">
<stop stop-color="#5B3F24"/>
<stop offset="0.15" stop-color="#8B6A36"/>
<stop offset="0.37" stop-color="#CAB985"/>
<stop offset="0.41" stop-color="#C7B47F"/>
<stop offset="0.53" stop-color="#C1AA73"/>
<stop offset="0.65" stop-color="#BFA66F"/>
<stop offset="0.84" stop-color="#CEBD89"/>
<stop offset="0.88" stop-color="#CBBA86"/>
<stop offset="0.92" stop-color="#C3B07C"/>
<stop offset="0.95" stop-color="#B69F6B"/>
<stop offset="0.98" stop-color="#A38753"/>
<stop offset="1" stop-color="#90703C"/>
</linearGradient>
<linearGradient id="paint4_linear_6_756" x1="33.1943" y1="26.8253" x2="51.4559" y2="29.9618" gradientUnits="userSpaceOnUse">
<stop stop-color="#5B3F24"/>
<stop offset="0.15" stop-color="#8B6A36"/>
<stop offset="0.37" stop-color="#CAB985"/>
<stop offset="0.41" stop-color="#C7B47F"/>
<stop offset="0.53" stop-color="#C1AA73"/>
<stop offset="0.65" stop-color="#BFA66F"/>
<stop offset="0.84" stop-color="#CEBD89"/>
<stop offset="0.88" stop-color="#CBBA86"/>
<stop offset="0.92" stop-color="#C3B07C"/>
<stop offset="0.95" stop-color="#B69F6B"/>
<stop offset="0.98" stop-color="#A38753"/>
<stop offset="1" stop-color="#90703C"/>
</linearGradient>
<linearGradient id="paint5_linear_6_756" x1="46.0656" y1="10.2888" x2="60.8385" y2="12.184" gradientUnits="userSpaceOnUse">
<stop stop-color="#5B3F24"/>
<stop offset="0.15" stop-color="#8B6A36"/>
<stop offset="0.37" stop-color="#CAB985"/>
<stop offset="0.41" stop-color="#C7B47F"/>
<stop offset="0.53" stop-color="#C1AA73"/>
<stop offset="0.65" stop-color="#BFA66F"/>
<stop offset="0.84" stop-color="#CEBD89"/>
<stop offset="0.88" stop-color="#CBBA86"/>
<stop offset="0.92" stop-color="#C3B07C"/>
<stop offset="0.95" stop-color="#B69F6B"/>
<stop offset="0.98" stop-color="#A38753"/>
<stop offset="1" stop-color="#90703C"/>
</linearGradient>
<linearGradient id="paint6_linear_6_756" x1="41.5296" y1="-8.75616" x2="58.9723" y2="-6.12588" gradientUnits="userSpaceOnUse">
<stop stop-color="#5B3F24"/>
<stop offset="0.15" stop-color="#8B6A36"/>
<stop offset="0.37" stop-color="#CAB985"/>
<stop offset="0.41" stop-color="#C7B47F"/>
<stop offset="0.53" stop-color="#C1AA73"/>
<stop offset="0.65" stop-color="#BFA66F"/>
<stop offset="0.84" stop-color="#CEBD89"/>
<stop offset="0.88" stop-color="#CBBA86"/>
<stop offset="0.92" stop-color="#C3B07C"/>
<stop offset="0.95" stop-color="#B69F6B"/>
<stop offset="0.98" stop-color="#A38753"/>
<stop offset="1" stop-color="#90703C"/>
</linearGradient>
<linearGradient id="paint7_linear_6_756" x1="23.3843" y1="6.62338" x2="31.1036" y2="7.67036" gradientUnits="userSpaceOnUse">
<stop stop-color="#5B3F24"/>
<stop offset="0.15" stop-color="#8B6A36"/>
<stop offset="0.37" stop-color="#CAB985"/>
<stop offset="0.41" stop-color="#C7B47F"/>
<stop offset="0.53" stop-color="#C1AA73"/>
<stop offset="0.65" stop-color="#BFA66F"/>
<stop offset="0.84" stop-color="#CEBD89"/>
<stop offset="0.88" stop-color="#CBBA86"/>
<stop offset="0.92" stop-color="#C3B07C"/>
<stop offset="0.95" stop-color="#B69F6B"/>
<stop offset="0.98" stop-color="#A38753"/>
<stop offset="1" stop-color="#90703C"/>
</linearGradient>
<linearGradient id="paint8_linear_6_756" x1="16.1294" y1="16.7997" x2="25.5875" y2="18.7895" gradientUnits="userSpaceOnUse">
<stop stop-color="#5B3F24"/>
<stop offset="0.15" stop-color="#8B6A36"/>
<stop offset="0.37" stop-color="#CAB985"/>
<stop offset="0.41" stop-color="#C7B47F"/>
<stop offset="0.53" stop-color="#C1AA73"/>
<stop offset="0.65" stop-color="#BFA66F"/>
<stop offset="0.84" stop-color="#CEBD89"/>
<stop offset="0.88" stop-color="#CBBA86"/>
<stop offset="0.92" stop-color="#C3B07C"/>
<stop offset="0.95" stop-color="#B69F6B"/>
<stop offset="0.98" stop-color="#A38753"/>
<stop offset="1" stop-color="#90703C"/>
</linearGradient>
<linearGradient id="paint9_linear_6_756" x1="18.9876" y1="24.9479" x2="27.1231" y2="26.2205" gradientUnits="userSpaceOnUse">
<stop stop-color="#5B3F24"/>
<stop offset="0.15" stop-color="#8B6A36"/>
<stop offset="0.37" stop-color="#CAB985"/>
<stop offset="0.41" stop-color="#C7B47F"/>
<stop offset="0.53" stop-color="#C1AA73"/>
<stop offset="0.65" stop-color="#BFA66F"/>
<stop offset="0.84" stop-color="#CEBD89"/>
<stop offset="0.88" stop-color="#CBBA86"/>
<stop offset="0.92" stop-color="#C3B07C"/>
<stop offset="0.95" stop-color="#B69F6B"/>
<stop offset="0.98" stop-color="#A38753"/>
<stop offset="1" stop-color="#90703C"/>
</linearGradient>
<linearGradient id="paint10_linear_6_756" x1="28.2629" y1="27.6572" x2="35.556" y2="28.511" gradientUnits="userSpaceOnUse">
<stop stop-color="#5B3F24"/>
<stop offset="0.15" stop-color="#8B6A36"/>
<stop offset="0.37" stop-color="#CAB985"/>
<stop offset="0.41" stop-color="#C7B47F"/>
<stop offset="0.53" stop-color="#C1AA73"/>
<stop offset="0.65" stop-color="#BFA66F"/>
<stop offset="0.84" stop-color="#CEBD89"/>
<stop offset="0.88" stop-color="#CBBA86"/>
<stop offset="0.92" stop-color="#C3B07C"/>
<stop offset="0.95" stop-color="#B69F6B"/>
<stop offset="0.98" stop-color="#A38753"/>
<stop offset="1" stop-color="#90703C"/>
</linearGradient>
<linearGradient id="paint11_linear_6_756" x1="36.5283" y1="25.8085" x2="45.2097" y2="27.3778" gradientUnits="userSpaceOnUse">
<stop stop-color="#5B3F24"/>
<stop offset="0.15" stop-color="#8B6A36"/>
<stop offset="0.37" stop-color="#CAB985"/>
<stop offset="0.41" stop-color="#C7B47F"/>
<stop offset="0.53" stop-color="#C1AA73"/>
<stop offset="0.65" stop-color="#BFA66F"/>
<stop offset="0.84" stop-color="#CEBD89"/>
<stop offset="0.88" stop-color="#CBBA86"/>
<stop offset="0.92" stop-color="#C3B07C"/>
<stop offset="0.95" stop-color="#B69F6B"/>
<stop offset="0.98" stop-color="#A38753"/>
<stop offset="1" stop-color="#90703C"/>
</linearGradient>
<linearGradient id="paint12_linear_6_756" x1="38.8689" y1="16.5276" x2="48.0298" y2="18.3122" gradientUnits="userSpaceOnUse">
<stop stop-color="#5B3F24"/>
<stop offset="0.15" stop-color="#8B6A36"/>
<stop offset="0.37" stop-color="#CAB985"/>
<stop offset="0.41" stop-color="#C7B47F"/>
<stop offset="0.53" stop-color="#C1AA73"/>
<stop offset="0.65" stop-color="#BFA66F"/>
<stop offset="0.84" stop-color="#CEBD89"/>
<stop offset="0.88" stop-color="#CBBA86"/>
<stop offset="0.92" stop-color="#C3B07C"/>
<stop offset="0.95" stop-color="#B69F6B"/>
<stop offset="0.98" stop-color="#A38753"/>
<stop offset="1" stop-color="#90703C"/>
</linearGradient>
<linearGradient id="paint13_linear_6_756" x1="33.1802" y1="6.07618" x2="40.4046" y2="6.93689" gradientUnits="userSpaceOnUse">
<stop stop-color="#5B3F24"/>
<stop offset="0.15" stop-color="#8B6A36"/>
<stop offset="0.37" stop-color="#CAB985"/>
<stop offset="0.41" stop-color="#C7B47F"/>
<stop offset="0.53" stop-color="#C1AA73"/>
<stop offset="0.65" stop-color="#BFA66F"/>
<stop offset="0.84" stop-color="#CEBD89"/>
<stop offset="0.88" stop-color="#CBBA86"/>
<stop offset="0.92" stop-color="#C3B07C"/>
<stop offset="0.95" stop-color="#B69F6B"/>
<stop offset="0.98" stop-color="#A38753"/>
<stop offset="1" stop-color="#90703C"/>
</linearGradient>
<linearGradient id="paint14_linear_6_756" x1="13.4598" y1="-5.93542" x2="25.2059" y2="-2.55851" gradientUnits="userSpaceOnUse">
<stop stop-color="#5B3F24"/>
<stop offset="0.15" stop-color="#8B6A36"/>
<stop offset="0.37" stop-color="#CAB985"/>
<stop offset="0.41" stop-color="#C7B47F"/>
<stop offset="0.53" stop-color="#C1AA73"/>
<stop offset="0.65" stop-color="#BFA66F"/>
<stop offset="0.84" stop-color="#CEBD89"/>
<stop offset="0.88" stop-color="#CBBA86"/>
<stop offset="0.92" stop-color="#C3B07C"/>
<stop offset="0.95" stop-color="#B69F6B"/>
<stop offset="0.98" stop-color="#A38753"/>
<stop offset="1" stop-color="#90703C"/>
</linearGradient>
<linearGradient id="paint15_linear_6_756" x1="0.949537" y1="5.07829" x2="7.07293" y2="5.52254" gradientUnits="userSpaceOnUse">
<stop stop-color="#5B3F24"/>
<stop offset="0.15" stop-color="#8B6A36"/>
<stop offset="0.37" stop-color="#CAB985"/>
<stop offset="0.41" stop-color="#C7B47F"/>
<stop offset="0.53" stop-color="#C1AA73"/>
<stop offset="0.65" stop-color="#BFA66F"/>
<stop offset="0.84" stop-color="#CEBD89"/>
<stop offset="0.88" stop-color="#CBBA86"/>
<stop offset="0.92" stop-color="#C3B07C"/>
<stop offset="0.95" stop-color="#B69F6B"/>
<stop offset="0.98" stop-color="#A38753"/>
<stop offset="1" stop-color="#90703C"/>
</linearGradient>
<linearGradient id="paint16_linear_6_756" x1="4.776" y1="32.3731" x2="12.9127" y2="33.3026" gradientUnits="userSpaceOnUse">
<stop stop-color="#5B3F24"/>
<stop offset="0.15" stop-color="#8B6A36"/>
<stop offset="0.37" stop-color="#CAB985"/>
<stop offset="0.41" stop-color="#C7B47F"/>
<stop offset="0.53" stop-color="#C1AA73"/>
<stop offset="0.65" stop-color="#BFA66F"/>
<stop offset="0.84" stop-color="#CEBD89"/>
<stop offset="0.88" stop-color="#CBBA86"/>
<stop offset="0.92" stop-color="#C3B07C"/>
<stop offset="0.95" stop-color="#B69F6B"/>
<stop offset="0.98" stop-color="#A38753"/>
<stop offset="1" stop-color="#90703C"/>
</linearGradient>
<linearGradient id="paint17_linear_6_756" x1="25.3446" y1="50.3727" x2="36.7608" y2="55.3987" gradientUnits="userSpaceOnUse">
<stop stop-color="#5B3F24"/>
<stop offset="0.15" stop-color="#8B6A36"/>
<stop offset="0.37" stop-color="#CAB985"/>
<stop offset="0.41" stop-color="#C7B47F"/>
<stop offset="0.53" stop-color="#C1AA73"/>
<stop offset="0.65" stop-color="#BFA66F"/>
<stop offset="0.84" stop-color="#CEBD89"/>
<stop offset="0.88" stop-color="#CBBA86"/>
<stop offset="0.92" stop-color="#C3B07C"/>
<stop offset="0.95" stop-color="#B69F6B"/>
<stop offset="0.98" stop-color="#A38753"/>
<stop offset="1" stop-color="#90703C"/>
</linearGradient>
<linearGradient id="paint18_linear_6_756" x1="49.9977" y1="33.7231" x2="59.0512" y2="34.9762" gradientUnits="userSpaceOnUse">
<stop stop-color="#5B3F24"/>
<stop offset="0.15" stop-color="#8B6A36"/>
<stop offset="0.37" stop-color="#CAB985"/>
<stop offset="0.41" stop-color="#C7B47F"/>
<stop offset="0.53" stop-color="#C1AA73"/>
<stop offset="0.65" stop-color="#BFA66F"/>
<stop offset="0.84" stop-color="#CEBD89"/>
<stop offset="0.88" stop-color="#CBBA86"/>
<stop offset="0.92" stop-color="#C3B07C"/>
<stop offset="0.95" stop-color="#B69F6B"/>
<stop offset="0.98" stop-color="#A38753"/>
<stop offset="1" stop-color="#90703C"/>
</linearGradient>
<linearGradient id="paint19_linear_6_756" x1="56.1051" y1="4.97878" x2="61.7517" y2="5.34712" gradientUnits="userSpaceOnUse">
<stop stop-color="#5B3F24"/>
<stop offset="0.15" stop-color="#8B6A36"/>
<stop offset="0.37" stop-color="#CAB985"/>
<stop offset="0.41" stop-color="#C7B47F"/>
<stop offset="0.53" stop-color="#C1AA73"/>
<stop offset="0.65" stop-color="#BFA66F"/>
<stop offset="0.84" stop-color="#CEBD89"/>
<stop offset="0.88" stop-color="#CBBA86"/>
<stop offset="0.92" stop-color="#C3B07C"/>
<stop offset="0.95" stop-color="#B69F6B"/>
<stop offset="0.98" stop-color="#A38753"/>
<stop offset="1" stop-color="#90703C"/>
</linearGradient>
<linearGradient id="paint20_linear_6_756" x1="38.9666" y1="-6.66509" x2="50.3082" y2="-3.76907" gradientUnits="userSpaceOnUse">
<stop stop-color="#5B3F24"/>
<stop offset="0.15" stop-color="#8B6A36"/>
<stop offset="0.37" stop-color="#CAB985"/>
<stop offset="0.41" stop-color="#C7B47F"/>
<stop offset="0.53" stop-color="#C1AA73"/>
<stop offset="0.65" stop-color="#BFA66F"/>
<stop offset="0.84" stop-color="#CEBD89"/>
<stop offset="0.88" stop-color="#CBBA86"/>
<stop offset="0.92" stop-color="#C3B07C"/>
<stop offset="0.95" stop-color="#B69F6B"/>
<stop offset="0.98" stop-color="#A38753"/>
<stop offset="1" stop-color="#90703C"/>
</linearGradient>
<linearGradient id="paint21_linear_6_756" x1="28.3671" y1="19.4302" x2="35.48" y2="20.536" gradientUnits="userSpaceOnUse">
<stop stop-color="#5B3F24"/>
<stop offset="0.15" stop-color="#8B6A36"/>
<stop offset="0.37" stop-color="#CAB985"/>
<stop offset="0.41" stop-color="#C7B47F"/>
<stop offset="0.53" stop-color="#C1AA73"/>
<stop offset="0.65" stop-color="#BFA66F"/>
<stop offset="0.84" stop-color="#CEBD89"/>
<stop offset="0.88" stop-color="#CBBA86"/>
<stop offset="0.92" stop-color="#C3B07C"/>
<stop offset="0.95" stop-color="#B69F6B"/>
<stop offset="0.98" stop-color="#A38753"/>
<stop offset="1" stop-color="#90703C"/>
</linearGradient>
<linearGradient id="paint22_linear_6_756" x1="58.9175" y1="17.9964" x2="62.0286" y2="18.48" gradientUnits="userSpaceOnUse">
<stop stop-color="#5B3F24"/>
<stop offset="0.15" stop-color="#8B6A36"/>
<stop offset="0.37" stop-color="#CAB985"/>
<stop offset="0.41" stop-color="#C7B47F"/>
<stop offset="0.53" stop-color="#C1AA73"/>
<stop offset="0.65" stop-color="#BFA66F"/>
<stop offset="0.84" stop-color="#CEBD89"/>
<stop offset="0.88" stop-color="#CBBA86"/>
<stop offset="0.92" stop-color="#C3B07C"/>
<stop offset="0.95" stop-color="#B69F6B"/>
<stop offset="0.98" stop-color="#A38753"/>
<stop offset="1" stop-color="#90703C"/>
</linearGradient>
<linearGradient id="paint23_linear_6_756" x1="53.3056" y1="43.4353" x2="56.4167" y2="43.919" gradientUnits="userSpaceOnUse">
<stop stop-color="#5B3F24"/>
<stop offset="0.15" stop-color="#8B6A36"/>
<stop offset="0.37" stop-color="#CAB985"/>
<stop offset="0.41" stop-color="#C7B47F"/>
<stop offset="0.53" stop-color="#C1AA73"/>
<stop offset="0.65" stop-color="#BFA66F"/>
<stop offset="0.84" stop-color="#CEBD89"/>
<stop offset="0.88" stop-color="#CBBA86"/>
<stop offset="0.92" stop-color="#C3B07C"/>
<stop offset="0.95" stop-color="#B69F6B"/>
<stop offset="0.98" stop-color="#A38753"/>
<stop offset="1" stop-color="#90703C"/>
</linearGradient>
<linearGradient id="paint24_linear_6_756" x1="42.6999" y1="-2.42379" x2="45.811" y2="-1.94014" gradientUnits="userSpaceOnUse">
<stop stop-color="#5B3F24"/>
<stop offset="0.15" stop-color="#8B6A36"/>
<stop offset="0.37" stop-color="#CAB985"/>
<stop offset="0.41" stop-color="#C7B47F"/>
<stop offset="0.53" stop-color="#C1AA73"/>
<stop offset="0.65" stop-color="#BFA66F"/>
<stop offset="0.84" stop-color="#CEBD89"/>
<stop offset="0.88" stop-color="#CBBA86"/>
<stop offset="0.92" stop-color="#C3B07C"/>
<stop offset="0.95" stop-color="#B69F6B"/>
<stop offset="0.98" stop-color="#A38753"/>
<stop offset="1" stop-color="#90703C"/>
</linearGradient>
<linearGradient id="paint25_linear_6_756" x1="16.5442" y1="-2.00363" x2="19.6553" y2="-1.51998" gradientUnits="userSpaceOnUse">
<stop stop-color="#5B3F24"/>
<stop offset="0.15" stop-color="#8B6A36"/>
<stop offset="0.37" stop-color="#CAB985"/>
<stop offset="0.41" stop-color="#C7B47F"/>
<stop offset="0.53" stop-color="#C1AA73"/>
<stop offset="0.65" stop-color="#BFA66F"/>
<stop offset="0.84" stop-color="#CEBD89"/>
<stop offset="0.88" stop-color="#CBBA86"/>
<stop offset="0.92" stop-color="#C3B07C"/>
<stop offset="0.95" stop-color="#B69F6B"/>
<stop offset="0.98" stop-color="#A38753"/>
<stop offset="1" stop-color="#90703C"/>
</linearGradient>
<linearGradient id="paint26_linear_6_756" x1="0.573839" y1="18.1448" x2="3.68494" y2="18.6285" gradientUnits="userSpaceOnUse">
<stop stop-color="#5B3F24"/>
<stop offset="0.15" stop-color="#8B6A36"/>
<stop offset="0.37" stop-color="#CAB985"/>
<stop offset="0.41" stop-color="#C7B47F"/>
<stop offset="0.53" stop-color="#C1AA73"/>
<stop offset="0.65" stop-color="#BFA66F"/>
<stop offset="0.84" stop-color="#CEBD89"/>
<stop offset="0.88" stop-color="#CBBA86"/>
<stop offset="0.92" stop-color="#C3B07C"/>
<stop offset="0.95" stop-color="#B69F6B"/>
<stop offset="0.98" stop-color="#A38753"/>
<stop offset="1" stop-color="#90703C"/>
</linearGradient>
<linearGradient id="paint27_linear_6_756" x1="6.25987" y1="43.8802" x2="9.37098" y2="44.3638" gradientUnits="userSpaceOnUse">
<stop stop-color="#5B3F24"/>
<stop offset="0.15" stop-color="#8B6A36"/>
<stop offset="0.37" stop-color="#CAB985"/>
<stop offset="0.41" stop-color="#C7B47F"/>
<stop offset="0.53" stop-color="#C1AA73"/>
<stop offset="0.65" stop-color="#BFA66F"/>
<stop offset="0.84" stop-color="#CEBD89"/>
<stop offset="0.88" stop-color="#CBBA86"/>
<stop offset="0.92" stop-color="#C3B07C"/>
<stop offset="0.95" stop-color="#B69F6B"/>
<stop offset="0.98" stop-color="#A38753"/>
<stop offset="1" stop-color="#90703C"/>
</linearGradient>
<linearGradient id="paint28_linear_6_756" x1="29.9434" y1="54.5848" x2="33.0545" y2="55.0684" gradientUnits="userSpaceOnUse">
<stop stop-color="#5B3F24"/>
<stop offset="0.15" stop-color="#8B6A36"/>
<stop offset="0.37" stop-color="#CAB985"/>
<stop offset="0.41" stop-color="#C7B47F"/>
<stop offset="0.53" stop-color="#C1AA73"/>
<stop offset="0.65" stop-color="#BFA66F"/>
<stop offset="0.84" stop-color="#CEBD89"/>
<stop offset="0.88" stop-color="#CBBA86"/>
<stop offset="0.92" stop-color="#C3B07C"/>
<stop offset="0.95" stop-color="#B69F6B"/>
<stop offset="0.98" stop-color="#A38753"/>
<stop offset="1" stop-color="#90703C"/>
</linearGradient>
<linearGradient id="paint29_linear_6_756" x1="21.7169" y1="9.19993" x2="23.3112" y2="9.44777" gradientUnits="userSpaceOnUse">
<stop stop-color="#5B3F24"/>
<stop offset="0.15" stop-color="#8B6A36"/>
<stop offset="0.37" stop-color="#CAB985"/>
<stop offset="0.41" stop-color="#C7B47F"/>
<stop offset="0.53" stop-color="#C1AA73"/>
<stop offset="0.65" stop-color="#BFA66F"/>
<stop offset="0.84" stop-color="#CEBD89"/>
<stop offset="0.88" stop-color="#CBBA86"/>
<stop offset="0.92" stop-color="#C3B07C"/>
<stop offset="0.95" stop-color="#B69F6B"/>
<stop offset="0.98" stop-color="#A38753"/>
<stop offset="1" stop-color="#90703C"/>
</linearGradient>
<linearGradient id="paint30_linear_6_756" x1="11.1936" y1="22.499" x2="12.7982" y2="22.7484" gradientUnits="userSpaceOnUse">
<stop stop-color="#5B3F24"/>
<stop offset="0.15" stop-color="#8B6A36"/>
<stop offset="0.37" stop-color="#CAB985"/>
<stop offset="0.41" stop-color="#C7B47F"/>
<stop offset="0.53" stop-color="#C1AA73"/>
<stop offset="0.65" stop-color="#BFA66F"/>
<stop offset="0.84" stop-color="#CEBD89"/>
<stop offset="0.88" stop-color="#CBBA86"/>
<stop offset="0.92" stop-color="#C3B07C"/>
<stop offset="0.95" stop-color="#B69F6B"/>
<stop offset="0.98" stop-color="#A38753"/>
<stop offset="1" stop-color="#90703C"/>
</linearGradient>
<linearGradient id="paint31_linear_6_756" x1="15.0525" y1="39.0454" x2="16.6514" y2="39.294" gradientUnits="userSpaceOnUse">
<stop stop-color="#5B3F24"/>
<stop offset="0.15" stop-color="#8B6A36"/>
<stop offset="0.37" stop-color="#CAB985"/>
<stop offset="0.41" stop-color="#C7B47F"/>
<stop offset="0.53" stop-color="#C1AA73"/>
<stop offset="0.65" stop-color="#BFA66F"/>
<stop offset="0.84" stop-color="#CEBD89"/>
<stop offset="0.88" stop-color="#CBBA86"/>
<stop offset="0.92" stop-color="#C3B07C"/>
<stop offset="0.95" stop-color="#B69F6B"/>
<stop offset="0.98" stop-color="#A38753"/>
<stop offset="1" stop-color="#90703C"/>
</linearGradient>
<linearGradient id="paint32_linear_6_756" x1="30.3815" y1="46.3431" x2="31.9769" y2="46.5912" gradientUnits="userSpaceOnUse">
<stop stop-color="#5B3F24"/>
<stop offset="0.15" stop-color="#8B6A36"/>
<stop offset="0.37" stop-color="#CAB985"/>
<stop offset="0.41" stop-color="#C7B47F"/>
<stop offset="0.53" stop-color="#C1AA73"/>
<stop offset="0.65" stop-color="#BFA66F"/>
<stop offset="0.84" stop-color="#CEBD89"/>
<stop offset="0.88" stop-color="#CBBA86"/>
<stop offset="0.92" stop-color="#C3B07C"/>
<stop offset="0.95" stop-color="#B69F6B"/>
<stop offset="0.98" stop-color="#A38753"/>
<stop offset="1" stop-color="#90703C"/>
</linearGradient>
<linearGradient id="paint33_linear_6_756" x1="45.6349" y1="38.8646" x2="47.2309" y2="39.1107" gradientUnits="userSpaceOnUse">
<stop stop-color="#5B3F24"/>
<stop offset="0.15" stop-color="#8B6A36"/>
<stop offset="0.37" stop-color="#CAB985"/>
<stop offset="0.41" stop-color="#C7B47F"/>
<stop offset="0.53" stop-color="#C1AA73"/>
<stop offset="0.65" stop-color="#BFA66F"/>
<stop offset="0.84" stop-color="#CEBD89"/>
<stop offset="0.88" stop-color="#CBBA86"/>
<stop offset="0.92" stop-color="#C3B07C"/>
<stop offset="0.95" stop-color="#B69F6B"/>
<stop offset="0.98" stop-color="#A38753"/>
<stop offset="1" stop-color="#90703C"/>
</linearGradient>
<linearGradient id="paint34_linear_6_756" x1="49.317" y1="22.3072" x2="50.916" y2="22.5556" gradientUnits="userSpaceOnUse">
<stop stop-color="#5B3F24"/>
<stop offset="0.15" stop-color="#8B6A36"/>
<stop offset="0.37" stop-color="#CAB985"/>
<stop offset="0.41" stop-color="#C7B47F"/>
<stop offset="0.53" stop-color="#C1AA73"/>
<stop offset="0.65" stop-color="#BFA66F"/>
<stop offset="0.84" stop-color="#CEBD89"/>
<stop offset="0.88" stop-color="#CBBA86"/>
<stop offset="0.92" stop-color="#C3B07C"/>
<stop offset="0.95" stop-color="#B69F6B"/>
<stop offset="0.98" stop-color="#A38753"/>
<stop offset="1" stop-color="#90703C"/>
</linearGradient>
<linearGradient id="paint35_linear_6_756" x1="38.6596" y1="9.0998" x2="40.2642" y2="9.34924" gradientUnits="userSpaceOnUse">
<stop stop-color="#5B3F24"/>
<stop offset="0.15" stop-color="#8B6A36"/>
<stop offset="0.37" stop-color="#CAB985"/>
<stop offset="0.41" stop-color="#C7B47F"/>
<stop offset="0.53" stop-color="#C1AA73"/>
<stop offset="0.65" stop-color="#BFA66F"/>
<stop offset="0.84" stop-color="#CEBD89"/>
<stop offset="0.88" stop-color="#CBBA86"/>
<stop offset="0.92" stop-color="#C3B07C"/>
<stop offset="0.95" stop-color="#B69F6B"/>
<stop offset="0.98" stop-color="#A38753"/>
<stop offset="1" stop-color="#90703C"/>
</linearGradient>
<clipPath id="clip0_6_756">
<rect width="60.8405" height="60" fill="white" transform="translate(0.579712)"/>
</clipPath>
</defs>
</svg>
