<svg width="44" height="45" viewBox="0 0 44 45" fill="none" xmlns="http://www.w3.org/2000/svg">
<g id="formkit:down">
<rect width="44" height="44" transform="matrix(0 -1 1 0 0 44.5)" fill="black" fill-opacity="0.4"/>
<path id="Vector" d="M27.314 22.01C27.3155 22.142 27.2905 22.2728 27.2406 22.3941C27.1907 22.5155 27.1169 22.6246 27.0241 22.7144L18.3285 31.7721C17.942 32.1746 17.343 32.1746 16.9565 31.7721C16.57 31.3695 16.57 30.7455 16.9565 30.343L24.9758 21.9898L16.9758 13.6568C16.5893 13.2543 16.5893 12.6303 16.9758 12.2277C17.3623 11.8252 17.9613 11.8252 18.3478 12.2277L27.0434 21.2854C27.2367 21.4866 27.3333 21.7483 27.3333 21.9898L27.314 22.01Z" fill="white"/>
</g>
</svg>
