<svg width="24" height="24" viewBox="0 0 24 24" fill="none" xmlns="http://www.w3.org/2000/svg">
<g id="Frame" clip-path="url(#clip0_1_303)">
<g id="Group">
<path id="Vector" d="M12 0C5.37281 0 0 5.37281 0 12C0 18.6272 5.37281 24 12 24C18.6272 24 24 18.6272 24 12C24 5.37281 18.6272 0 12 0Z" fill="#C88C66"/>
<path id="Vector_2" d="M13 -9C-7 -9 -3.50004 3.52792 -3.50004 10C-3.50004 16.4721 -11 29.5 13 29.5C24.5 29.5 32 17.4721 32 11C32 4.52792 27 -9 13 -9Z" fill="#C88C66"/>
<path id="Vector_3" d="M13.3128 10.914L18.4499 4.94263H17.2325L12.772 10.1275L9.20945 4.94263H5.10042L10.4877 12.7831L5.10042 19.045H6.31781L11.0282 13.5696L14.7906 19.045H18.8996L13.3125 10.914H13.3128ZM6.75644 5.85907H8.62627L17.2331 18.1703H15.3633L6.75644 5.85907Z" fill="white"/>
</g>
</g>
<defs>
<clipPath id="clip0_1_303">
<rect width="24" height="24" fill="white"/>
</clipPath>
</defs>
</svg>
